<?xml version="1.0" standalone="no"?>
<!DOCTYPE svg PUBLIC "-//W3C//DTD SVG 20010904//EN"
 "http://www.w3.org/TR/2001/REC-SVG-20010904/DTD/svg10.dtd">
<svg version="1.0" xmlns="http://www.w3.org/2000/svg"
 width="2350.000000pt" height="2460.000000pt" viewBox="0 0 2350.000000 2460.000000"
 preserveAspectRatio="xMidYMid meet">

<g transform="translate(0.000000,2460.000000) scale(0.100000,-0.100000)"
fill="#000000" stroke="none">
<path d="M0 12300 l0 -12300 11750 0 11750 0 0 12300 0 12300 -11750 0 -11750
0 0 -12300z m23490 0 l0 -12290 -11740 0 -11740 0 0 12290 0 12290 11740 0
11740 0 0 -12290z"/>
<path d="M11730 23487 l0 -34 -427 -6 c-236 -4 -539 -7 -675 -7 l-248 0 0 -34
c0 -33 -1 -33 -52 -40 -29 -3 -158 -6 -285 -6 l-233 0 0 -34 c0 -33 -1 -33
-52 -40 -29 -3 -126 -6 -215 -6 l-163 0 0 -34 c0 -32 -2 -34 -46 -40 -26 -3
-136 -6 -245 -6 l-199 0 0 -40 0 -40 -180 0 -180 0 0 -40 0 -40 -175 0 -175 0
0 -40 0 -40 -145 0 -145 0 0 -40 0 -39 -142 -3 -143 -3 -3 -37 -3 -38 -140 0
-139 0 0 -40 0 -40 -94 0 c-51 0 -114 -3 -140 -6 -44 -6 -46 -8 -46 -40 l0
-34 -110 0 -110 0 0 -40 0 -40 -87 0 c-49 0 -112 -3 -140 -6 -52 -7 -53 -7
-53 -40 l0 -34 -52 0 c-29 0 -77 -3 -105 -6 -52 -7 -53 -8 -53 -39 0 -32 0
-32 -61 -39 -34 -3 -84 -6 -110 -6 -49 0 -49 0 -49 -34 0 -33 -1 -33 -52 -40
-29 -3 -77 -6 -105 -6 l-53 0 0 -34 c0 -33 -1 -33 -52 -40 -29 -3 -76 -6 -105
-6 l-52 0 -3 -37 -3 -38 -107 -3 -108 -3 0 -39 0 -40 -75 0 -75 0 0 -34 c0
-32 -2 -34 -46 -40 -26 -3 -73 -6 -105 -6 l-59 0 0 -40 0 -40 -105 0 -105 0 0
-40 0 -40 -75 0 -75 0 0 -40 0 -40 -100 0 -100 0 0 -40 0 -40 -75 0 -75 0 0
-40 0 -40 -59 0 c-32 0 -79 -3 -105 -6 -44 -6 -46 -8 -46 -40 l0 -34 -70 0
-70 0 0 -39 0 -38 -69 -7 -69 -7 -7 -74 c-7 -74 -7 -74 -39 -77 l-31 -3 -3
-482 -2 -483 -35 0 -35 0 0 -1530 0 -1530 35 0 35 0 0 -504 c0 -276 3 -531 6
-565 7 -59 8 -61 35 -61 l29 0 0 -247 c0 -137 3 -299 7 -360 l6 -113 29 0 28
0 0 -189 c0 -103 3 -216 6 -250 7 -59 8 -61 35 -61 l29 0 0 -172 c0 -95 3
-203 7 -240 6 -66 7 -68 33 -68 l27 0 6 -122 c4 -66 7 -156 7 -200 l0 -78 28
0 29 0 6 -122 c4 -66 7 -156 7 -200 l0 -78 29 0 c27 0 28 -2 35 -61 3 -34 6
-109 6 -165 l0 -104 29 0 c27 0 29 -3 35 -52 3 -29 6 -101 6 -160 l0 -108 35
0 35 0 0 -160 0 -160 35 0 35 0 0 -107 c0 -60 3 -132 6 -160 6 -50 8 -53 35
-53 l28 0 3 -122 3 -123 33 -3 32 -3 0 -58 c0 -32 3 -86 6 -120 7 -58 8 -61
34 -61 26 0 27 -3 34 -61 3 -34 6 -88 6 -120 0 -58 0 -59 29 -59 27 0 28 -2
35 -61 3 -34 6 -88 6 -120 l0 -59 35 0 35 0 0 -120 0 -120 35 0 35 0 0 -120 0
-120 35 0 35 0 0 -85 0 -85 35 0 35 0 0 -120 0 -120 35 0 35 0 0 -80 0 -80 35
0 35 0 0 -59 c0 -32 3 -85 6 -119 7 -59 8 -61 38 -64 l31 -3 3 -77 3 -77 32
-3 32 -3 3 -77 3 -77 32 -3 32 -3 3 -82 3 -83 28 0 c27 0 29 -3 35 -52 3 -29
6 -81 6 -115 l0 -63 35 0 35 0 0 -85 0 -85 35 0 34 0 3 -77 3 -78 32 -3 31 -3
7 -80 c7 -78 7 -79 35 -79 28 0 28 -1 35 -79 l7 -80 31 -3 32 -3 3 -77 3 -78
34 0 c35 0 35 0 35 -45 0 -43 1 -45 29 -45 l30 0 7 -80 7 -80 33 0 34 0 0 -75
0 -75 35 0 35 0 0 -80 0 -80 35 0 c35 0 35 0 35 -45 0 -45 0 -45 35 -45 l35 0
0 -80 0 -80 34 0 34 0 7 -80 c7 -79 7 -80 35 -80 28 0 28 -1 35 -80 l7 -80 34
0 c33 0 34 -1 34 -39 0 -37 2 -40 33 -43 l32 -3 3 -77 3 -78 34 0 c34 0 35 -1
35 -39 0 -37 2 -40 33 -43 l32 -3 3 -77 3 -78 34 0 c35 0 35 0 35 -45 0 -44 0
-45 34 -45 l34 0 7 -75 c7 -74 7 -75 35 -75 27 0 29 -3 32 -42 3 -40 5 -43 36
-46 30 -3 32 -6 32 -43 0 -38 1 -39 34 -39 l34 0 7 -80 7 -80 34 0 c33 0 34
-1 34 -40 0 -39 1 -40 35 -40 l35 0 0 -80 0 -80 35 0 c34 0 35 -1 35 -40 0
-39 1 -40 35 -40 35 0 35 0 35 -45 0 -44 0 -45 34 -45 l34 0 7 -75 c7 -75 7
-75 36 -75 27 0 29 -2 29 -40 0 -39 1 -40 34 -40 34 0 35 -1 38 -43 3 -39 5
-42 35 -45 29 -3 32 -7 35 -40 3 -33 6 -37 35 -40 l31 -3 7 -74 c7 -74 7 -74
39 -77 29 -3 31 -6 34 -46 3 -41 4 -42 38 -42 33 0 34 -1 34 -40 0 -39 1 -40
35 -40 34 0 35 -1 35 -40 0 -39 1 -40 34 -40 l34 0 7 -80 7 -80 34 0 c33 0 34
-1 34 -40 0 -39 1 -40 35 -40 34 0 35 -1 35 -40 0 -39 1 -40 35 -40 34 0 35
-1 35 -40 0 -39 1 -40 35 -40 34 0 35 -1 35 -40 0 -39 1 -40 35 -40 34 0 35
-1 35 -40 0 -39 1 -40 35 -40 34 0 35 -1 35 -40 0 -39 1 -40 35 -40 35 0 35 0
35 -45 0 -45 0 -45 35 -45 34 0 35 -1 35 -40 0 -39 1 -40 35 -40 34 0 35 -1
35 -40 0 -39 1 -40 34 -40 33 0 35 -2 38 -37 3 -35 6 -38 36 -41 30 -3 32 -6
32 -43 0 -38 1 -39 34 -39 l34 0 7 -74 7 -75 31 -3 c30 -3 32 -6 35 -45 3 -42
4 -43 38 -43 33 0 34 -1 34 -40 0 -39 1 -40 35 -40 34 0 35 -1 35 -40 0 -39 1
-40 35 -40 34 0 35 -1 35 -40 0 -39 1 -40 35 -40 34 0 35 -1 35 -40 0 -39 1
-40 35 -40 34 0 35 -1 35 -40 0 -39 1 -40 35 -40 34 0 35 -1 35 -39 0 -39 1
-40 38 -43 35 -3 37 -5 40 -40 3 -33 6 -37 35 -40 29 -3 32 -6 35 -41 3 -35 5
-37 38 -37 33 0 34 -1 34 -40 0 -39 1 -40 35 -40 34 0 35 -1 35 -40 0 -39 1
-40 35 -40 34 0 35 -1 35 -39 0 -39 1 -40 38 -43 35 -3 37 -5 40 -40 3 -33 6
-37 35 -40 29 -3 32 -6 35 -40 l3 -37 65 -6 64 -7 0 -39 c0 -38 1 -39 35 -39
34 0 35 -1 35 -40 l0 -40 40 0 40 0 0 -40 c0 -39 1 -40 35 -40 34 0 35 -1 35
-40 0 -39 1 -40 35 -40 34 0 35 -1 35 -40 l0 -40 40 0 c40 0 40 0 40 -39 l0
-39 65 -7 65 -7 0 -34 c0 -32 2 -34 35 -34 34 0 35 -1 35 -39 0 -39 1 -40 38
-43 35 -3 37 -5 40 -40 3 -36 5 -38 38 -38 33 0 34 -1 34 -40 0 -39 1 -40 35
-40 34 0 35 -1 35 -40 0 -39 1 -40 35 -40 34 0 35 -1 35 -39 l0 -39 69 -7 70
-7 3 -36 c3 -34 6 -37 36 -40 29 -3 32 -6 32 -37 0 -32 2 -34 38 -37 35 -3 37
-5 40 -40 3 -33 6 -37 35 -40 29 -3 32 -6 35 -40 l3 -37 70 -7 69 -7 0 -38 c0
-38 1 -39 35 -39 34 0 35 -1 35 -40 0 -39 1 -40 35 -40 34 0 35 -1 35 -40 l0
-40 70 0 70 0 0 -40 c0 -39 1 -40 35 -40 34 0 35 -1 35 -40 l0 -40 40 0 c40 0
40 0 40 -40 l0 -39 68 -3 67 -3 3 -37 c3 -36 5 -38 38 -38 33 0 34 -1 34 -40
l0 -40 70 0 70 0 0 -40 0 -40 75 0 75 0 0 34 0 35 70 7 70 7 0 38 0 39 70 0
70 0 0 40 c0 39 1 40 35 40 34 0 35 1 35 40 l0 40 70 0 70 0 0 40 c0 39 1 40
35 40 34 0 35 1 35 40 l0 40 40 0 40 0 0 40 0 40 65 0 65 0 0 39 c0 39 1 40
38 43 35 3 37 5 40 41 3 35 5 37 38 37 33 0 34 1 34 39 0 39 1 40 38 43 35 3
37 5 40 40 l3 37 64 6 64 7 3 37 c3 33 6 36 36 39 29 3 32 6 32 37 0 32 2 34
38 37 36 3 37 4 40 46 3 41 4 42 38 42 32 0 34 2 34 34 0 32 3 35 33 38 29 3
32 6 35 40 l3 36 70 7 69 7 0 39 c0 38 1 39 35 39 34 0 35 1 35 40 0 39 1 40
35 40 34 0 35 1 35 40 l0 40 40 0 40 0 0 40 c0 39 1 40 35 40 34 0 35 1 35 40
0 39 1 40 35 40 34 0 35 1 35 40 0 39 1 40 35 40 34 0 35 1 35 39 l0 39 70 7
70 7 0 39 c0 38 1 39 35 39 33 0 35 2 35 35 0 33 2 35 34 35 34 0 35 1 38 43
3 39 5 42 36 45 29 3 32 6 32 38 0 32 2 34 35 34 34 0 35 1 35 39 0 39 1 40
38 43 35 3 37 5 40 40 3 33 6 37 35 40 29 3 32 6 35 40 3 33 6 37 35 40 29 3
32 6 35 41 3 35 5 37 38 37 33 0 34 1 34 39 0 39 1 40 38 43 35 3 37 5 40 40
3 33 6 37 35 40 29 3 32 6 35 40 3 33 6 37 35 40 30 3 32 6 35 45 3 42 4 43
38 43 33 0 34 1 34 40 0 39 1 40 35 40 34 0 35 1 35 40 0 39 1 40 35 40 34 0
35 1 35 40 0 39 1 40 35 40 34 0 35 1 35 40 0 39 1 40 35 40 34 0 35 1 35 40
0 39 1 40 35 40 34 0 35 1 35 40 0 39 1 40 35 40 35 0 35 0 35 45 0 44 0 45
34 45 l34 0 7 74 7 75 31 3 c29 3 32 7 35 40 3 33 6 37 35 40 30 3 32 6 35 45
3 42 4 43 38 43 32 0 34 2 34 34 0 32 3 35 33 38 30 3 32 6 35 45 3 42 4 43
38 43 33 0 34 1 34 40 0 39 1 40 35 40 34 0 35 1 35 40 0 39 1 40 35 40 34 0
35 1 35 40 0 39 1 40 35 40 34 0 35 1 35 40 0 39 1 40 35 40 34 0 35 1 35 40
0 39 1 40 35 40 34 0 35 1 35 40 0 39 1 40 34 40 l34 0 7 80 7 80 34 0 c33 0
34 1 34 40 0 39 1 40 35 40 34 0 35 1 35 40 0 39 1 40 35 40 34 0 35 1 35 40
0 39 1 40 35 40 35 0 35 0 35 45 0 45 0 45 35 45 l35 0 0 75 0 75 34 0 c34 0
35 1 38 42 3 40 5 43 36 46 30 3 32 6 32 43 0 38 1 39 34 39 l34 0 7 80 7 80
34 0 c33 0 34 1 34 40 0 39 1 40 35 40 34 0 35 1 35 40 0 39 1 40 35 40 l35 0
0 80 0 80 35 0 c34 0 35 1 35 40 0 39 1 40 35 40 l35 0 0 80 0 80 34 0 c34 0
35 1 38 42 3 40 5 43 34 46 32 3 32 3 39 77 l7 74 31 3 c30 3 32 6 35 45 3 40
5 43 32 43 28 0 28 1 35 74 7 75 7 75 39 78 29 3 31 6 34 45 3 42 4 43 38 43
l34 0 0 80 0 80 34 0 34 0 7 80 c7 80 7 80 36 80 27 0 29 3 29 40 0 39 1 40
34 40 l33 0 7 80 c7 79 8 80 36 80 28 0 28 1 35 80 l7 80 34 0 c34 0 34 1 34
45 0 43 1 45 29 45 29 0 29 0 36 74 7 75 7 75 39 78 l31 3 3 78 3 77 34 0 c35
0 35 0 35 45 0 45 0 45 35 45 l35 0 0 80 0 80 35 0 35 0 0 80 0 80 35 0 35 0
0 80 0 80 34 0 34 0 7 80 c7 79 7 80 35 80 28 0 28 0 35 85 7 85 7 85 35 85
28 0 29 1 36 80 6 79 7 80 34 80 25 0 28 4 34 53 3 28 6 80 6 115 l0 62 35 0
35 0 0 85 0 85 35 0 35 0 0 80 0 80 35 0 35 0 0 80 0 80 35 0 35 0 0 68 c0 37
3 91 6 120 6 49 8 52 35 52 l28 0 3 83 3 82 33 3 c32 3 32 4 32 56 0 29 3 81
6 115 7 58 8 61 34 61 27 0 28 1 35 85 7 84 7 85 34 85 27 0 28 3 35 61 3 34
6 88 6 120 0 58 0 59 29 59 27 0 29 3 35 53 3 28 6 82 6 120 l0 67 35 0 35 0
0 120 0 120 35 0 34 0 3 123 3 122 33 3 32 3 0 102 c0 56 3 126 6 155 6 49 8
52 35 52 29 0 29 0 29 64 0 34 3 91 6 125 7 58 8 61 34 61 l28 0 7 160 7 160
28 0 c26 0 27 3 34 61 3 34 6 106 6 160 l0 98 33 3 32 3 3 157 3 157 32 3 32
3 3 163 2 162 35 0 35 0 0 205 0 205 35 0 35 0 0 183 c0 100 3 206 6 235 6 49
8 52 35 52 l29 0 0 184 c0 100 3 211 6 245 7 59 8 61 35 61 l29 0 0 158 c0 88
3 214 7 280 l6 122 29 0 28 0 0 143 c0 79 3 279 7 445 l6 302 27 0 27 0 6 182
c4 99 7 444 7 765 l0 583 30 0 30 0 0 605 0 605 -30 0 -30 0 0 543 c0 298 -3
626 -7 730 l-6 187 -29 0 -28 0 0 158 c0 88 -3 214 -7 280 l-6 122 -34 0 c-32
0 -33 1 -33 40 l0 40 -70 0 -70 0 0 40 0 40 -69 0 -70 0 -3 38 -3 37 -102 3
-103 3 0 39 0 40 -75 0 -75 0 0 40 0 40 -105 0 -105 0 0 40 0 40 -70 0 -70 0
0 40 0 39 -107 3 -108 3 -3 38 -3 37 -70 0 -69 0 0 40 0 40 -105 0 -105 0 0
40 0 40 -59 0 c-32 0 -79 3 -105 6 -44 6 -46 8 -46 40 l0 34 -57 0 c-32 0 -82
3 -110 6 -52 7 -53 8 -53 39 0 31 -1 32 -52 39 -29 3 -77 6 -105 6 l-53 0 0
35 0 35 -49 0 c-26 0 -76 3 -110 6 -61 7 -61 7 -61 39 0 31 -1 32 -52 39 -29
3 -77 6 -105 6 l-53 0 0 34 c0 33 -1 33 -52 40 -29 3 -79 6 -110 6 l-58 0 0
34 c0 33 -1 33 -52 40 -29 3 -92 6 -140 6 l-88 0 0 34 c0 33 -1 33 -52 40 -29
3 -92 6 -140 6 l-88 0 0 40 0 40 -145 0 -145 0 0 40 0 40 -140 0 -140 0 0 40
0 40 -145 0 -145 0 0 40 0 40 -180 0 -180 0 0 40 0 40 -175 0 -175 0 0 40 0
40 -197 0 c-109 0 -222 3 -250 6 -52 7 -53 7 -53 40 l0 34 -189 0 c-103 0
-216 3 -250 6 l-61 7 0 33 0 34 -248 0 c-137 0 -297 3 -355 7 l-107 6 0 34 0
33 -303 0 c-167 0 -520 3 -785 7 l-482 6 0 34 0 33 -215 0 -215 0 0 -33z
m1108 -694 l112 -6 0 -34 0 -33 408 0 c224 0 431 -3 460 -6 51 -7 52 -7 52
-40 l0 -34 233 0 c127 0 256 -3 285 -6 51 -7 52 -7 52 -40 l0 -34 84 0 c45 0
111 -3 145 -6 l61 -7 0 -33 0 -34 68 0 c38 0 117 -3 175 -7 l107 -6 0 -32 0
-32 113 -6 c61 -4 142 -7 180 -7 l67 0 0 -35 0 -35 68 0 c38 0 117 -3 175 -7
l107 -6 0 -32 c0 -32 0 -32 61 -39 34 -3 100 -6 145 -6 l84 0 0 -34 0 -34 145
-7 145 -7 0 -33 c0 -31 1 -32 53 -39 28 -3 91 -6 140 -6 l87 0 0 -34 c0 -33 1
-33 53 -40 28 -3 91 -6 139 -6 l87 0 3 -37 3 -38 108 -3 107 -3 0 -33 c0 -33
1 -33 53 -40 28 -3 91 -6 140 -6 l87 0 0 -40 0 -40 105 0 105 0 0 -40 0 -40
110 0 110 0 0 -40 0 -40 105 0 105 0 0 -40 0 -40 75 0 75 0 0 -40 0 -40 105 0
105 0 0 -40 0 -40 59 0 c32 0 79 -3 105 -6 44 -6 46 -8 46 -39 l0 -33 75 -7
75 -7 0 -34 0 -34 53 0 c28 0 76 -3 105 -6 51 -7 52 -7 52 -40 l0 -32 75 -7
75 -7 0 -33 c0 -31 1 -32 53 -39 28 -3 73 -6 99 -6 l47 0 3 -37 3 -38 73 -3
72 -3 0 -33 0 -34 70 -7 70 -7 0 -33 0 -33 75 -7 75 -7 0 -39 c0 -36 2 -39 29
-39 l29 0 7 -400 7 -400 28 0 27 0 6 -427 c9 -553 9 -2238 0 -2781 l-6 -422
-27 0 -27 0 -6 -242 c-4 -133 -7 -315 -7 -405 l0 -163 -28 0 -29 0 -6 -122
c-4 -66 -7 -210 -7 -319 l0 -198 -32 -3 -33 -3 -3 -202 -2 -203 -35 0 -35 0 0
-240 0 -240 -35 0 -35 0 0 -147 c0 -82 -3 -172 -6 -200 -6 -50 -8 -53 -35 -53
l-29 0 0 -104 c0 -56 -3 -131 -6 -165 -7 -59 -8 -61 -35 -61 l-29 0 0 -99 c0
-54 -3 -126 -6 -160 -7 -58 -8 -61 -34 -61 l-28 0 -7 -160 -7 -160 -28 0 c-26
0 -27 -3 -34 -61 -3 -34 -6 -91 -6 -125 0 -64 0 -64 -29 -64 -27 0 -29 -3 -35
-52 -3 -29 -6 -99 -6 -155 l0 -103 -29 0 c-27 0 -28 -2 -35 -61 -3 -34 -6 -91
-6 -125 l0 -64 -35 0 -35 0 0 -120 0 -120 -35 0 -35 0 0 -120 0 -120 -35 0
-35 0 0 -67 c0 -38 -3 -92 -6 -120 -6 -50 -8 -53 -35 -53 l-28 0 -3 -82 -3
-83 -32 -3 c-33 -3 -33 -4 -33 -56 0 -29 -3 -81 -6 -115 -7 -58 -8 -61 -34
-61 -27 0 -28 -1 -35 -85 -7 -84 -7 -85 -34 -85 -27 0 -28 -3 -35 -61 -3 -34
-6 -88 -6 -120 l0 -59 -35 0 -35 0 0 -80 0 -80 -35 0 -35 0 0 -80 0 -80 -35 0
-35 0 0 -85 0 -85 -35 0 -35 0 0 -80 0 -80 -35 0 -35 0 0 -80 0 -80 -35 0 -34
0 -3 -77 -3 -78 -32 -3 -31 -3 -7 -80 c-7 -78 -7 -79 -35 -79 -28 0 -28 -1
-35 -80 -7 -79 -7 -80 -35 -80 -28 0 -28 -1 -35 -80 l-7 -80 -34 0 -34 0 0
-80 0 -80 -35 0 -35 0 0 -80 0 -80 -35 0 c-35 0 -35 0 -35 -45 0 -45 0 -45
-35 -45 l-34 0 -3 -77 -3 -78 -31 -3 c-32 -3 -32 -3 -39 -78 -7 -73 -7 -74
-35 -74 -27 0 -29 -3 -32 -42 -3 -40 -5 -43 -35 -46 l-31 -3 -7 -80 -7 -79
-34 0 -34 0 0 -80 0 -80 -35 0 c-34 0 -35 -1 -35 -40 0 -39 -1 -40 -35 -40
l-35 0 0 -80 0 -80 -35 0 c-34 0 -35 -1 -35 -40 0 -39 -1 -40 -34 -40 l-33 0
-7 -80 c-7 -80 -7 -80 -36 -80 -27 0 -29 -3 -32 -42 -3 -40 -5 -43 -35 -46
l-31 -3 -7 -74 c-7 -74 -7 -74 -39 -77 -29 -3 -31 -6 -34 -46 -3 -41 -4 -42
-38 -42 -33 0 -34 -1 -34 -40 0 -39 -1 -40 -35 -40 l-35 0 0 -75 0 -75 -35 0
c-35 0 -35 0 -35 -45 0 -45 0 -45 -35 -45 -34 0 -35 -1 -35 -40 0 -39 -1 -40
-35 -40 l-35 0 0 -80 0 -80 -35 0 c-34 0 -35 -1 -35 -40 0 -39 -1 -40 -35 -40
-34 0 -35 -1 -35 -40 0 -39 -1 -40 -34 -40 l-34 0 -7 -80 -7 -80 -34 0 c-33 0
-34 -1 -34 -40 0 -39 -1 -40 -35 -40 -34 0 -35 -1 -35 -40 0 -39 -1 -40 -35
-40 -35 0 -35 0 -35 -45 0 -45 0 -45 -35 -45 -34 0 -35 -1 -35 -40 0 -39 -1
-40 -35 -40 -34 0 -35 -1 -35 -40 0 -39 -1 -40 -34 -40 l-34 0 -7 -74 -7 -75
-31 -3 c-29 -3 -32 -7 -35 -40 -3 -33 -6 -37 -35 -40 -30 -3 -32 -6 -35 -46
-3 -41 -4 -42 -38 -42 -33 0 -34 -1 -34 -40 0 -39 -1 -40 -35 -40 -34 0 -35
-1 -35 -40 0 -39 -1 -40 -35 -40 -34 0 -35 -1 -35 -40 0 -39 -1 -40 -35 -40
-34 0 -35 -1 -35 -40 0 -39 -1 -40 -35 -40 -34 0 -35 -1 -35 -40 0 -39 -1 -40
-34 -40 -34 0 -35 -1 -38 -42 -3 -40 -5 -43 -35 -46 -29 -3 -32 -7 -35 -40 -3
-34 -6 -37 -35 -40 -29 -3 -32 -7 -35 -40 -3 -34 -6 -37 -35 -40 -29 -3 -32
-7 -35 -40 -3 -34 -6 -37 -35 -40 -29 -3 -32 -7 -35 -40 -3 -34 -6 -37 -35
-40 -29 -3 -32 -7 -35 -40 -3 -35 -5 -37 -40 -40 l-38 -3 0 -74 0 -74 -37 -3
c-36 -3 -38 -5 -41 -40 -3 -33 -6 -37 -35 -40 -29 -3 -32 -6 -35 -40 -3 -33
-6 -37 -35 -40 -30 -3 -32 -6 -35 -45 -3 -42 -4 -43 -38 -43 -33 0 -34 -1 -34
-40 l0 -40 -65 0 -65 0 0 -40 0 -40 -40 0 -40 0 0 -40 c0 -39 -1 -40 -35 -40
-34 0 -35 -1 -35 -40 0 -39 -1 -40 -35 -40 -34 0 -35 -1 -35 -40 0 -39 -1 -40
-35 -40 -34 0 -35 -1 -35 -39 0 -39 -1 -40 -37 -43 -36 -3 -38 -5 -41 -39 l-3
-37 -64 -7 -64 -6 -3 -37 c-3 -34 -6 -37 -35 -40 -29 -3 -32 -7 -35 -40 -3
-35 -5 -37 -40 -40 -37 -3 -38 -4 -38 -43 0 -38 -1 -39 -35 -39 -33 0 -35 -2
-35 -35 0 -33 -2 -35 -35 -35 -34 0 -35 -1 -35 -39 l0 -39 -70 -7 -70 -7 0
-39 c0 -38 -1 -39 -35 -39 -34 0 -35 -1 -35 -40 0 -39 -1 -40 -34 -40 -33 0
-35 -2 -38 -37 -3 -36 -5 -38 -40 -41 -37 -3 -38 -4 -38 -43 l0 -39 -64 0 -65
0 -3 -37 c-3 -36 -5 -38 -40 -41 -37 -3 -38 -4 -38 -43 0 -38 -1 -39 -35 -39
-34 0 -35 -1 -35 -40 l0 -40 -40 0 c-40 0 -40 0 -40 -39 l0 -39 -65 -7 -65 -7
0 -34 c0 -33 -1 -34 -40 -34 l-40 0 0 -40 c0 -39 -1 -40 -35 -40 -34 0 -35 -1
-35 -39 l0 -39 -70 -7 -70 -7 0 -34 c0 -32 -2 -34 -35 -34 -34 0 -35 -1 -35
-39 l0 -39 -69 -7 -70 -7 -3 -36 c-3 -34 -6 -37 -35 -40 -30 -3 -33 -6 -33
-37 0 -32 -2 -34 -37 -37 -36 -3 -38 -5 -41 -40 -3 -35 -6 -38 -33 -38 -26 0
-29 3 -29 34 l0 34 -75 7 -75 7 0 39 c0 38 -1 39 -34 39 -33 0 -35 2 -38 38
-3 34 -6 37 -35 40 -30 3 -33 6 -33 37 l0 33 -70 7 -70 7 0 39 c0 39 0 39 -40
39 l-40 0 0 40 c0 39 -1 40 -35 40 -33 0 -35 2 -35 34 l0 35 -70 7 -70 7 0 38
c0 38 -1 39 -35 39 -34 0 -35 1 -35 40 0 39 -1 40 -35 40 -34 0 -35 1 -35 40
l0 40 -70 0 -70 0 0 39 c0 39 -1 40 -37 43 -36 3 -38 5 -41 41 -3 35 -5 37
-38 37 -33 0 -34 1 -34 40 0 39 -1 40 -35 40 -34 0 -35 1 -35 39 l0 39 -70 7
-70 7 0 39 c0 38 -1 39 -35 39 -33 0 -35 2 -35 35 0 33 -2 35 -35 35 -34 0
-35 1 -35 39 0 39 -1 40 -37 43 -36 3 -38 5 -41 40 -3 33 -6 37 -35 40 -29 3
-32 7 -35 39 l-3 37 -64 7 -64 6 -3 37 c-3 35 -5 37 -40 40 -37 3 -38 4 -38
43 0 38 -1 39 -35 39 -34 0 -35 1 -35 40 0 39 -1 40 -35 40 -34 0 -35 1 -35
40 l0 40 -40 0 -40 0 0 40 0 40 -65 0 -65 0 0 40 c0 39 -1 40 -35 40 -34 0
-35 1 -35 40 l0 40 -40 0 -40 0 0 40 c0 39 -1 40 -35 40 -34 0 -35 1 -35 40 0
39 -1 40 -35 40 -34 0 -35 1 -35 40 0 39 -1 40 -35 40 -34 0 -35 1 -35 40 0
39 -1 40 -35 40 -34 0 -35 1 -35 40 0 39 -1 40 -35 40 -34 0 -35 1 -35 40 0
39 -1 40 -34 40 -34 0 -35 1 -38 43 -3 41 -4 42 -40 45 -37 3 -38 4 -38 43 0
38 -1 39 -35 39 -34 0 -35 1 -35 40 0 39 -1 40 -35 40 -34 0 -35 1 -35 40 0
39 -1 40 -35 40 -34 0 -35 1 -35 40 0 39 -1 40 -35 40 -34 0 -35 1 -35 40 0
39 -1 40 -35 40 -34 0 -35 1 -35 40 0 39 -1 40 -35 40 -34 0 -35 1 -35 40 0
39 -1 40 -35 40 -34 0 -35 1 -35 40 0 39 -1 40 -34 40 l-34 0 -7 80 -7 80 -34
0 c-33 0 -34 1 -34 40 0 39 -1 40 -35 40 -34 0 -35 1 -35 40 0 39 -1 40 -35
40 -34 0 -35 1 -35 40 0 39 -1 40 -35 40 -34 0 -35 1 -35 40 0 39 -1 40 -35
40 -35 0 -35 0 -35 45 0 45 0 45 -35 45 -34 0 -35 1 -35 40 0 39 -1 40 -34 40
l-34 0 -7 74 -7 75 -31 3 c-29 3 -32 7 -35 40 -3 33 -6 37 -35 40 -30 3 -32 6
-35 45 -3 42 -4 43 -38 43 -33 0 -34 1 -34 40 0 39 -1 40 -35 40 -34 0 -35 1
-35 40 0 39 -1 40 -35 40 l-35 0 0 80 0 80 -35 0 c-34 0 -35 1 -35 40 0 39 -1
40 -35 40 -34 0 -35 1 -35 40 0 39 -1 40 -34 40 l-34 0 -7 79 -7 80 -31 3
c-29 3 -32 7 -35 41 -3 33 -6 37 -32 37 -27 0 -29 3 -32 43 -3 39 -5 42 -35
45 l-31 3 -7 75 -7 74 -34 0 c-34 0 -34 1 -34 45 0 45 0 45 -35 45 l-35 0 0
75 0 75 -35 0 c-35 0 -35 0 -35 45 0 44 0 45 -34 45 l-34 0 -7 80 c-7 80 -7
80 -36 80 -27 0 -29 3 -29 40 0 39 -1 40 -34 40 l-34 0 -7 80 -7 80 -34 0
c-33 0 -34 1 -34 40 0 37 -2 40 -29 40 -29 0 -29 0 -36 80 l-7 80 -34 0 c-34
0 -34 1 -34 45 0 45 0 45 -35 45 l-35 0 0 80 0 80 -35 0 -35 0 0 75 0 75 -34
0 -33 0 -7 80 -7 80 -30 0 c-28 0 -29 2 -29 45 0 44 0 45 -34 45 l-34 0 -7 80
c-7 79 -7 80 -35 80 -28 0 -28 1 -35 80 -7 79 -7 80 -35 80 -28 0 -28 1 -35
80 l-7 80 -34 0 -34 0 0 80 0 80 -35 0 -35 0 0 80 0 80 -35 0 -35 0 0 80 0 80
-35 0 -34 0 -3 83 -3 82 -32 3 -32 3 -3 77 -3 77 -32 3 -32 3 -3 77 -3 77 -31
3 c-30 3 -31 5 -38 64 -3 34 -6 87 -6 119 l0 59 -35 0 -35 0 0 79 0 80 -32 3
-33 3 -3 83 -3 82 -28 0 c-27 0 -29 3 -35 53 -3 28 -6 80 -6 115 l0 62 -35 0
-35 0 0 85 0 85 -35 0 -35 0 0 120 0 120 -35 0 -35 0 0 59 c0 32 -3 86 -6 120
-7 59 -8 61 -35 61 -29 0 -29 1 -29 59 0 32 -3 86 -6 120 -7 58 -8 61 -34 61
-26 0 -27 2 -33 68 -4 37 -7 91 -7 120 0 51 -1 52 -29 52 -27 0 -28 2 -35 61
-3 34 -6 91 -6 125 0 64 0 64 -29 64 -27 0 -28 2 -35 61 -3 34 -6 106 -6 160
l0 99 -35 0 -35 0 0 120 0 120 -35 0 -35 0 0 165 0 165 -35 0 -35 0 0 143 c0
78 -3 166 -6 195 -6 49 -8 52 -35 52 l-29 0 0 104 c0 56 -3 131 -6 165 -7 59
-8 61 -35 61 l-29 0 0 78 c0 44 -3 134 -7 200 l-6 122 -27 0 -28 0 -7 245 -7
245 -28 0 -27 0 -6 122 c-4 66 -7 192 -7 280 l0 158 -28 0 -29 0 -6 122 c-4
66 -7 231 -7 365 l0 243 -29 0 c-27 0 -28 2 -35 61 -3 34 -6 304 -6 600 l0
539 -35 0 -35 0 0 970 0 970 35 0 35 0 0 584 c0 320 3 611 6 645 7 59 8 61 35
61 l29 0 0 200 0 199 73 3 72 3 3 38 3 37 53 0 c29 0 74 3 100 6 44 6 46 8 46
39 l0 33 75 7 75 7 0 33 0 33 75 7 75 7 0 33 c0 31 1 32 53 39 28 3 76 6 105
6 l52 0 0 34 0 34 70 7 70 7 0 33 c0 31 1 32 53 39 28 3 75 6 104 6 l52 0 3
38 3 37 73 3 72 3 0 33 c0 33 1 33 53 40 28 3 76 6 105 6 l52 0 0 40 0 40 105
0 105 0 0 40 0 40 105 0 105 0 0 40 0 40 110 0 110 0 0 40 0 40 105 0 105 0 0
40 0 40 110 0 110 0 0 40 0 40 94 0 c51 0 114 3 140 6 44 6 46 8 46 40 l0 33
108 3 107 3 3 38 3 37 87 0 c48 0 111 3 140 6 51 7 52 7 52 40 l0 34 84 0 c45
0 111 3 145 6 l61 7 0 33 0 34 68 0 c38 0 117 3 175 7 l107 6 0 32 0 33 145 7
145 7 0 33 0 33 210 7 210 7 0 33 0 32 113 6 c61 4 158 7 215 7 l102 0 0 33 0
34 158 6 c86 4 214 7 285 7 l127 0 0 33 0 34 107 6 c58 4 234 7 390 7 l283 0
0 34 0 33 61 7 c34 3 259 6 500 6 l439 0 0 35 0 34 73 4 c141 6 564 7 675 0z"/>
<path d="M10950 22277 l0 -34 -212 -6 c-116 -4 -276 -7 -355 -7 l-143 0 0 -33
0 -34 -157 -6 c-87 -4 -215 -7 -285 -7 l-128 0 0 -34 c0 -33 -1 -33 -52 -40
-29 -3 -124 -6 -210 -6 l-158 0 0 -34 0 -33 -61 -7 c-34 -3 -115 -6 -180 -6
l-119 0 0 -40 0 -40 -180 0 -180 0 0 -40 0 -40 -140 0 -140 0 0 -40 0 -40
-145 0 -145 0 0 -40 0 -40 -140 0 -140 0 0 -40 0 -40 -110 0 -110 0 0 -40 0
-40 -94 0 c-51 0 -114 -3 -140 -6 -44 -6 -46 -8 -46 -40 l0 -34 -57 0 c-32 0
-82 -3 -110 -6 -52 -7 -53 -7 -53 -40 l0 -34 -105 0 -105 0 0 -40 0 -40 -52 0
c-29 0 -77 -3 -105 -6 -52 -7 -53 -7 -53 -40 0 -34 0 -34 -49 -34 -26 0 -76
-3 -110 -6 -61 -7 -61 -7 -61 -39 0 -31 -1 -32 -52 -39 -29 -3 -77 -6 -105 -6
l-53 0 0 -34 0 -34 -70 -7 -70 -7 0 -33 c0 -32 0 -32 -61 -39 -34 -3 -84 -6
-110 -6 -49 0 -49 0 -49 -34 l0 -34 -70 -7 -70 -7 0 -33 c0 -31 -1 -32 -52
-39 -29 -3 -76 -6 -105 -6 l-52 0 -3 -37 -3 -38 -72 -3 -73 -3 0 -39 0 -40
-105 0 -105 0 0 -40 0 -40 -70 0 -70 0 0 -40 c0 -39 -1 -40 -35 -40 l-35 0 0
-338 c0 -187 -3 -421 -7 -520 l-6 -182 -29 0 -28 0 0 -1295 0 -1295 28 0 29 0
6 -242 c4 -133 7 -369 7 -525 l0 -283 29 0 c27 0 28 -2 35 -61 3 -34 6 -178 6
-320 l0 -259 35 0 35 0 0 -280 0 -280 35 0 35 0 0 -205 0 -205 35 0 35 0 0
-118 c0 -66 3 -174 7 -240 l6 -122 27 0 27 0 8 -160 7 -160 28 0 28 0 7 -165
7 -165 28 0 c26 0 27 -3 34 -61 3 -34 6 -106 6 -160 l0 -99 35 0 35 0 0 -125
0 -125 29 0 c27 0 29 -3 35 -52 3 -29 6 -99 6 -155 l0 -103 35 0 35 0 0 -125
0 -125 35 0 34 0 3 -117 3 -118 33 -3 32 -3 0 -58 c0 -32 3 -86 6 -120 7 -59
8 -61 35 -61 l28 0 3 -82 3 -83 33 -3 c32 -3 32 -4 32 -56 0 -29 3 -81 6 -115
7 -58 8 -61 34 -61 26 0 27 -3 34 -61 3 -34 6 -88 6 -120 l0 -58 33 -3 32 -3
3 -82 3 -83 34 0 35 0 0 -80 0 -80 35 0 35 0 0 -120 0 -120 35 0 35 0 0 -80 0
-80 35 0 34 0 3 -82 3 -83 32 -3 32 -3 3 -77 3 -77 32 -3 32 -3 3 -77 3 -77
32 -3 31 -3 7 -80 c7 -78 7 -79 35 -79 28 0 28 -1 35 -80 7 -79 7 -80 35 -80
28 0 28 -1 35 -80 l7 -80 34 0 34 0 0 -80 0 -80 35 0 35 0 0 -80 0 -80 35 0
35 0 0 -80 0 -80 34 0 c34 0 35 -1 38 -43 3 -39 5 -42 34 -45 32 -3 32 -3 39
-78 7 -73 7 -74 35 -74 28 0 28 -1 35 -79 l7 -80 31 -3 c30 -3 32 -6 35 -46 3
-39 5 -42 32 -42 29 0 29 0 36 -80 l7 -80 33 0 34 0 0 -80 0 -80 35 0 c34 0
35 -1 35 -40 0 -39 1 -40 35 -40 l35 0 0 -80 0 -80 35 0 c34 0 35 -1 35 -40 0
-39 1 -40 34 -40 l34 0 7 -80 7 -80 34 0 c33 0 34 -1 34 -40 0 -38 2 -40 29
-40 28 0 30 -3 33 -42 3 -40 5 -43 35 -46 l31 -3 7 -75 7 -74 34 0 c34 0 34
-1 34 -45 0 -45 0 -45 35 -45 l35 0 0 -75 0 -75 35 0 c35 0 35 0 35 -45 0 -45
0 -45 35 -45 34 0 35 -1 35 -40 0 -39 1 -40 34 -40 l34 0 7 -74 7 -75 31 -3
c30 -3 32 -6 35 -45 3 -42 4 -43 38 -43 33 0 34 -1 34 -40 0 -39 1 -40 35 -40
34 0 35 -1 35 -40 0 -39 1 -40 35 -40 l35 0 0 -80 0 -80 35 0 c34 0 35 -1 35
-40 0 -39 1 -40 35 -40 34 0 35 -1 35 -40 0 -39 1 -40 35 -40 34 0 35 -1 35
-40 0 -39 1 -40 34 -40 34 0 35 -1 38 -42 3 -40 5 -43 35 -46 29 -3 32 -7 35
-40 3 -34 6 -37 35 -40 29 -3 32 -7 35 -40 3 -33 6 -37 35 -40 l31 -3 7 -75 7
-74 34 0 c33 0 34 -1 34 -40 0 -39 1 -40 35 -40 35 0 35 0 35 -45 0 -45 0 -45
35 -45 34 0 35 -1 35 -40 0 -39 1 -40 35 -40 34 0 35 -1 35 -40 0 -39 1 -40
35 -40 34 0 35 -1 35 -40 0 -39 1 -40 35 -40 34 0 35 -1 35 -40 0 -39 1 -40
35 -40 34 0 35 -1 35 -40 l0 -40 40 0 40 0 0 -40 c0 -39 1 -40 35 -40 34 0 35
-1 35 -40 0 -39 1 -40 35 -40 34 0 35 -1 35 -40 0 -39 1 -40 35 -40 34 0 35
-1 35 -40 0 -39 1 -40 35 -40 34 0 35 -1 35 -40 0 -39 1 -40 35 -40 34 0 35
-1 35 -40 0 -39 1 -40 35 -40 34 0 35 -1 35 -39 0 -39 1 -40 38 -43 35 -3 37
-5 40 -40 3 -33 6 -37 35 -40 30 -3 32 -6 35 -45 3 -42 4 -43 38 -43 32 0 34
-2 34 -34 0 -32 3 -35 33 -38 29 -3 32 -6 35 -40 3 -36 5 -38 38 -38 33 0 34
-1 34 -39 l0 -39 70 -7 70 -7 0 -39 c0 -38 1 -39 35 -39 34 0 35 -1 35 -40 0
-39 1 -40 35 -40 34 0 35 -1 35 -40 l0 -40 40 0 40 0 0 -40 c0 -39 1 -40 35
-40 34 0 35 -1 35 -40 0 -39 1 -40 35 -40 34 0 35 -1 35 -39 l0 -39 69 -7 70
-7 3 -36 c3 -34 6 -37 36 -40 29 -3 32 -6 32 -38 0 -32 2 -34 35 -34 34 0 35
-1 35 -39 0 -39 1 -40 38 -43 35 -3 37 -5 40 -39 l3 -37 64 -7 64 -6 3 -37 c3
-35 5 -37 41 -40 36 -3 37 -4 37 -43 0 -38 1 -39 35 -39 34 0 35 -1 35 -40 0
-39 1 -40 35 -40 33 0 35 -2 35 -34 l0 -34 70 -7 70 -7 0 -39 c0 -38 1 -39 35
-39 34 0 35 -1 35 -40 l0 -40 40 0 40 0 0 -40 0 -40 65 0 65 0 0 -40 0 -40 40
0 40 0 0 -40 c0 -39 1 -40 35 -40 34 0 35 -1 35 -40 l0 -40 70 0 70 0 0 -40
c0 -39 1 -40 35 -40 34 0 35 1 35 40 l0 40 40 0 40 0 0 40 0 40 65 0 65 0 0
40 0 40 40 0 40 0 0 40 c0 39 1 40 35 40 34 0 35 1 35 39 l0 38 70 7 70 7 0
35 c0 32 2 34 35 34 34 0 35 1 35 39 0 39 1 40 38 43 35 3 37 5 40 39 l3 37
64 7 64 6 3 37 c3 35 5 37 41 40 35 3 37 5 37 38 0 32 2 34 35 34 34 0 35 1
35 40 0 39 1 40 35 40 34 0 35 1 35 39 l0 39 70 7 70 7 0 39 c0 38 1 39 34 39
33 0 35 2 38 37 3 36 5 38 41 41 36 3 37 4 37 43 0 38 1 39 35 39 34 0 35 1
35 40 0 39 1 40 35 40 34 0 35 1 35 40 l0 40 70 0 70 0 0 40 c0 39 1 40 35 40
34 0 35 1 35 40 0 39 1 40 35 40 34 0 35 1 35 40 0 39 1 40 35 40 34 0 35 1
35 40 l0 40 40 0 40 0 0 40 c0 39 1 40 35 40 34 0 35 1 35 39 0 37 2 40 33 43
29 3 32 6 35 41 3 35 5 37 38 37 33 0 34 1 34 40 0 39 1 40 35 40 34 0 35 1
35 40 0 39 1 40 35 40 34 0 35 1 35 40 0 39 1 40 35 40 34 0 35 1 35 40 0 39
1 40 34 40 34 0 35 1 38 43 3 41 4 42 41 45 35 3 37 5 37 37 0 31 3 34 33 37
29 3 32 6 35 40 3 33 6 37 35 40 29 3 32 6 35 40 3 33 6 37 35 40 30 3 32 6
35 45 3 42 4 43 38 43 32 0 34 2 34 34 l0 34 69 7 69 7 7 79 7 79 34 0 c33 0
34 1 34 40 0 39 1 40 35 40 34 0 35 1 35 40 0 39 1 40 35 40 34 0 35 1 35 40
0 39 1 40 35 40 34 0 35 1 35 40 0 39 1 40 35 40 34 0 35 1 35 40 0 39 1 40
35 40 34 0 35 1 35 40 0 39 1 40 35 40 35 0 35 0 35 45 0 45 0 45 35 45 34 0
35 1 35 40 0 39 1 40 35 40 34 0 35 1 35 40 0 39 1 40 34 40 l34 0 7 74 7 75
31 3 c30 3 32 6 35 45 3 42 4 43 38 43 33 0 34 1 34 40 0 39 1 40 35 40 34 0
35 1 35 40 0 39 1 40 35 40 l35 0 0 80 0 80 35 0 c34 0 35 1 35 40 0 39 1 40
35 40 34 0 35 1 35 40 0 39 1 40 34 40 34 0 35 1 38 42 3 40 5 43 35 46 l31 3
7 74 c7 74 7 74 39 77 28 3 31 7 34 40 3 33 6 37 35 40 30 3 32 6 35 46 3 41
4 42 38 42 l34 0 0 74 0 75 33 3 c30 3 32 6 35 45 3 42 4 43 38 43 l34 0 0 75
0 75 35 0 c35 0 35 0 35 45 0 45 0 45 35 45 34 0 35 1 35 40 0 39 1 40 34 40
l34 0 7 80 c7 80 7 80 35 80 27 0 29 3 32 43 3 39 5 42 35 45 l31 3 7 74 c7
74 7 74 39 77 l31 3 3 78 3 77 34 0 c35 0 35 0 35 45 0 45 0 45 35 45 l35 0 0
75 0 75 34 0 33 0 7 80 7 80 30 0 c28 0 29 2 29 45 0 44 0 45 34 45 l34 0 7
80 c7 79 7 80 35 80 28 0 28 1 35 80 l7 80 34 0 34 0 0 80 0 80 35 0 35 0 0
80 0 80 35 0 c35 0 35 0 35 45 0 45 0 45 35 45 l35 0 0 80 0 80 35 0 35 0 0
80 0 80 35 0 35 0 0 80 0 80 35 0 35 0 0 63 c0 34 3 86 6 115 6 49 9 52 34 52
27 0 28 1 35 85 7 85 7 85 35 85 28 0 28 1 35 80 7 79 7 80 35 80 28 0 28 0
35 85 l7 85 34 0 34 0 0 115 0 115 35 0 35 0 0 85 0 85 35 0 34 0 3 118 3 117
33 3 32 3 0 58 c0 32 3 86 6 120 7 59 8 61 35 61 29 0 29 1 29 59 0 32 3 86 6
120 7 58 8 61 35 61 27 0 27 1 34 85 l7 85 29 0 c28 0 29 1 29 53 0 28 3 82 7
120 6 65 7 67 33 67 26 0 27 3 34 61 3 34 6 104 6 155 l0 93 33 3 32 3 3 123
3 122 34 0 35 0 0 160 0 160 35 0 35 0 0 108 c0 59 3 131 6 160 6 49 8 52 35
52 l29 0 0 108 c0 59 3 131 6 160 6 49 8 52 35 52 l29 0 0 144 c0 78 3 171 6
205 7 59 8 61 35 61 l29 0 0 78 c0 44 3 134 7 200 l6 122 27 0 28 0 7 240 7
240 28 0 27 0 6 128 c4 70 7 198 7 285 l0 157 28 0 29 0 6 122 c4 66 7 228 7
360 l0 238 29 0 c27 0 28 2 35 61 3 34 6 309 6 610 l0 549 35 0 35 0 0 765 0
765 -35 0 -35 0 0 624 c0 342 -3 651 -6 685 -7 59 -8 61 -35 61 l-29 0 0 120
0 120 -35 0 c-34 0 -35 1 -35 40 l0 40 -70 0 -70 0 0 40 0 40 -75 0 -75 0 0
40 0 40 -52 0 c-29 0 -77 3 -105 6 -52 7 -53 8 -53 39 l0 32 -70 7 -70 7 0 34
0 34 -72 3 -73 3 -3 38 -3 37 -52 0 c-29 0 -76 3 -104 6 -52 7 -53 8 -53 39 0
32 0 32 -61 39 -34 3 -82 6 -105 6 -43 0 -44 1 -44 34 l0 33 -61 7 c-34 3 -82
6 -105 6 -43 0 -44 1 -44 34 l0 34 -75 7 -75 7 0 33 c0 32 0 32 -61 39 -34 3
-84 6 -110 6 -49 0 -49 0 -49 34 0 32 -2 34 -46 40 -26 3 -73 6 -105 6 l-59 0
0 34 c0 33 -1 33 -52 40 -29 3 -92 6 -140 6 l-88 0 0 40 0 40 -110 0 -110 0 0
40 0 40 -105 0 -105 0 0 40 0 40 -145 0 -145 0 0 40 0 40 -140 0 -140 0 0 40
0 39 -142 3 -143 3 -3 38 -3 37 -175 0 -174 0 0 40 0 40 -157 0 c-87 0 -182 3
-210 6 -52 7 -53 7 -53 40 l0 34 -143 0 c-79 0 -192 3 -250 7 l-107 6 0 34 0
33 -123 0 c-68 0 -199 3 -290 7 l-167 6 0 34 0 33 -207 0 c-115 0 -306 3 -425
7 l-218 6 0 34 0 33 -1105 0 -1105 0 0 -33z m2280 -647 c0 -39 1 -40 35 -40
34 0 35 -1 35 -40 0 -39 1 -40 35 -40 l35 0 0 -57 c0 -32 3 -88 7 -125 6 -67
6 -68 34 -68 28 0 29 -1 29 -52 0 -29 3 -83 7 -120 6 -66 7 -68 33 -68 26 0
27 -3 34 -61 3 -34 6 -88 6 -120 l0 -59 35 0 35 0 0 -114 0 -115 33 -3 32 -3
3 -122 3 -123 34 0 35 0 0 -85 0 -85 35 0 34 0 3 -117 3 -118 32 -3 32 -3 3
-117 3 -117 33 -3 32 -3 0 -120 0 -119 -129 0 c-70 0 -149 3 -175 6 -44 6 -46
8 -46 40 0 32 -2 34 -35 34 l-35 0 0 64 c0 34 -3 91 -6 125 -7 59 -8 61 -35
61 l-28 0 -3 78 -3 77 -32 3 c-30 3 -33 6 -33 36 l0 33 -217 6 c-273 9 -453 9
-520 1 l-53 -7 0 -113 0 -114 -35 0 -35 0 0 -85 0 -85 -35 0 c-34 0 -35 -1
-35 -40 l0 -40 -180 0 -180 0 0 85 0 85 35 0 35 0 0 63 c0 34 3 86 6 115 6 49
9 52 34 52 27 0 28 1 35 85 7 85 7 85 35 85 28 0 28 1 35 80 7 79 7 80 35 80
26 0 27 3 34 61 3 34 6 88 6 120 l0 59 35 0 35 0 0 80 0 80 35 0 35 0 0 80 0
80 35 0 35 0 0 85 0 85 35 0 35 0 0 63 c0 34 3 86 6 115 6 49 8 52 35 52 l28
0 3 83 3 82 32 3 31 3 7 80 c7 78 7 79 35 79 28 0 28 1 35 80 l7 80 174 0 174
0 0 -40z m-1850 -80 l0 -40 70 0 70 0 0 -40 c0 -39 1 -40 34 -40 34 0 35 -1
38 -42 3 -40 5 -43 34 -46 32 -3 32 -3 39 -78 7 -73 7 -74 35 -74 28 0 28 0
35 -85 7 -84 8 -85 35 -85 26 0 27 -3 34 -61 3 -34 6 -124 6 -200 l0 -139 30
0 30 0 0 -160 0 -160 -30 0 -30 0 0 -99 c0 -54 -3 -126 -6 -160 -7 -58 -8 -61
-34 -61 -27 0 -28 -1 -35 -85 l-7 -85 -28 0 c-26 0 -29 -4 -32 -37 -3 -35 -6
-38 -35 -41 -29 -3 -32 -7 -35 -40 -3 -35 -5 -37 -40 -40 -37 -3 -38 -4 -38
-43 l0 -39 -70 0 -70 0 0 -40 0 -40 -145 0 -145 0 0 -33 0 -34 -157 -6 c-87
-4 -263 -7 -390 -7 l-233 0 0 240 0 240 -35 0 -35 0 0 605 0 605 -35 0 -35 0
0 205 0 205 35 0 c34 0 35 1 35 40 l0 40 570 0 570 0 0 -40z m3418 -82 l3 -38
139 0 138 0 7 -80 c7 -80 7 -80 36 -80 l29 0 0 -283 c0 -156 3 -392 7 -525 l6
-242 29 0 28 0 0 -120 0 -120 34 0 35 0 7 80 7 80 33 0 34 0 0 80 0 80 35 0
35 0 0 80 0 80 35 0 35 0 0 85 0 85 35 0 35 0 0 63 c0 34 3 86 6 115 6 48 9
52 34 52 27 0 28 1 34 80 7 79 8 80 36 80 28 0 28 0 35 85 l7 85 29 0 c26 0
29 3 29 35 l0 35 75 0 75 0 0 -35 0 -35 103 0 c57 0 152 -3 210 -7 l107 -6 0
-119 0 -118 -28 0 -29 0 -6 -112 c-4 -62 -7 -152 -7 -200 l0 -88 -29 0 c-27 0
-28 -2 -35 -61 -3 -34 -6 -142 -6 -240 l0 -178 -32 -3 -33 -3 -3 -237 -2 -238
-35 0 -35 0 0 -205 0 -205 -35 0 -35 0 0 -80 0 -80 -75 0 -75 0 0 40 0 40
-100 0 -100 0 0 40 c0 38 2 40 30 40 l30 0 0 118 c0 66 3 174 7 240 l6 122 27
0 27 0 6 128 c4 70 7 162 7 205 l0 77 28 0 29 0 6 122 c4 66 7 156 7 200 l0
78 30 0 30 0 0 80 0 80 -30 0 c-28 0 -30 -2 -30 -40 0 -39 -1 -40 -34 -40
l-34 0 -7 -80 c-7 -79 -7 -80 -35 -80 -26 0 -27 -3 -34 -61 -3 -34 -6 -88 -6
-120 l0 -59 -35 0 -35 0 0 -80 0 -80 -35 0 -35 0 0 -80 0 -80 -35 0 -35 0 0
-85 0 -85 -35 0 -35 0 0 -62 c0 -35 -3 -87 -6 -115 -6 -50 -9 -53 -34 -53 -27
0 -28 -1 -35 -85 l-7 -85 -29 0 c-27 0 -29 -2 -29 -40 l0 -40 -145 0 -145 0 0
40 c0 39 -1 40 -35 40 l-35 0 0 165 0 165 -35 0 -35 0 0 588 c0 323 -3 611 -6
640 -6 49 -8 52 -35 52 l-28 0 -3 -77 -3 -78 -32 -3 -33 -3 0 -118 c0 -65 -3
-173 -7 -239 l-6 -122 -29 0 -28 0 0 -77 c0 -43 -3 -135 -7 -205 l-6 -128 -27
0 -27 0 -6 -122 c-4 -66 -7 -156 -7 -200 l0 -78 -30 0 c-28 0 -30 -2 -30 -40
l0 -40 -92 0 c-51 0 -117 3 -145 6 l-53 7 0 233 0 233 33 3 32 3 3 203 2 202
35 0 35 0 0 240 0 240 35 0 35 0 2 203 3 202 33 3 32 3 0 138 c0 76 3 166 6
200 l7 62 136 -3 136 -3 3 -37z m-5820 -124 l52 -7 0 -73 0 -74 35 0 c35 0 35
0 35 -45 0 -45 0 -45 35 -45 l35 0 0 -80 0 -80 34 0 34 0 7 -75 c7 -74 7 -75
35 -75 27 0 29 -3 32 -42 3 -40 5 -43 35 -46 l31 -3 7 -80 7 -79 34 0 c33 0
34 -1 34 -40 0 -37 2 -40 29 -40 29 0 29 0 36 -80 l7 -80 34 0 c34 0 34 -1 34
-45 0 -45 0 -45 35 -45 l35 0 0 -75 0 -75 34 0 33 0 7 -80 c7 -80 7 -80 36
-80 27 0 29 -3 32 -42 3 -40 5 -43 34 -46 32 -3 32 -3 39 -78 7 -73 7 -74 35
-74 27 0 29 -3 32 -42 3 -40 5 -43 34 -46 30 -3 31 -5 38 -64 3 -34 6 -87 6
-119 l0 -59 -180 0 -180 0 0 40 c0 39 -1 40 -35 40 -34 0 -35 1 -35 40 0 39
-1 40 -35 40 l-35 0 0 80 0 80 -35 0 c-34 0 -35 1 -35 40 l0 40 -110 0 -110 0
0 -33 0 -34 -107 -6 c-58 -4 -153 -7 -210 -7 l-103 0 0 -35 0 -34 -72 -3 -73
-3 -3 -117 -3 -118 -28 0 c-27 0 -28 -2 -34 -67 -4 -38 -7 -94 -7 -125 l0 -58
-35 0 c-34 0 -35 -1 -35 -40 l0 -40 -175 0 -175 0 0 40 c0 37 2 40 29 40 27 0
28 2 35 61 3 34 6 124 6 200 l0 138 33 3 32 3 3 203 2 202 29 0 c27 0 29 3 35
53 3 28 6 118 6 200 l0 147 35 0 35 0 0 205 0 205 35 0 35 0 0 183 c0 100 3
206 6 235 6 49 8 52 35 52 28 0 29 2 29 45 l0 45 75 0 75 0 0 34 c0 33 2 35
38 39 66 7 136 7 190 1z m-1728 -518 l0 -34 70 -7 70 -7 0 -39 c0 -38 1 -39
35 -39 34 0 35 -1 35 -40 0 -39 1 -40 35 -40 34 0 35 -1 35 -40 0 -39 1 -40
35 -40 l35 0 0 -80 0 -80 -70 0 -70 0 0 -40 0 -40 -140 0 -140 0 0 40 c0 39
-1 40 -35 40 -34 0 -35 1 -35 40 l0 40 -180 0 -180 0 0 -40 0 -40 -69 0 -70 0
-3 -42 c-3 -40 -5 -43 -35 -46 l-33 -3 0 -75 0 -74 29 0 c28 0 30 -3 33 -42 3
-42 4 -43 41 -46 35 -3 37 -5 37 -38 l0 -34 408 0 c224 0 431 -3 460 -6 51 -7
52 -8 52 -39 l0 -32 69 -7 70 -7 3 -37 c3 -34 6 -37 35 -40 l32 -3 7 -80 7
-79 33 0 34 0 0 -280 0 -280 -35 0 -35 0 0 -80 0 -80 -35 0 c-34 0 -35 -1 -35
-39 0 -39 -1 -40 -37 -43 -36 -3 -38 -5 -41 -40 l-3 -37 -67 -3 -67 -3 -3 -37
-3 -38 -52 0 c-29 0 -76 -3 -104 -6 -52 -7 -53 -8 -53 -39 l0 -32 -170 -7
c-94 -4 -222 -4 -285 0 l-115 7 0 32 0 33 -70 7 -70 7 0 39 c0 38 -1 39 -35
39 -34 0 -35 1 -35 40 0 39 -1 40 -34 40 l-34 0 -7 80 c-7 80 -7 80 -36 80
-27 0 -29 3 -29 40 0 38 2 40 30 40 28 0 30 2 30 40 l0 40 75 0 75 0 0 40 0
40 70 0 70 0 0 -40 c0 -39 1 -40 35 -40 34 0 35 -1 35 -40 0 -39 1 -40 35 -40
34 0 35 -1 35 -40 l0 -39 73 -3 72 -3 3 -37 3 -38 64 0 64 0 3 38 3 37 108 3
107 3 0 39 c0 39 1 40 35 40 34 0 35 1 35 40 0 39 1 40 35 40 l35 0 0 160 0
160 -35 0 c-34 0 -35 1 -35 40 l0 40 -407 0 c-225 0 -432 3 -460 6 -52 7 -53
8 -53 39 l0 32 -69 7 -70 7 -3 37 c-3 35 -5 37 -40 40 -37 3 -38 4 -38 43 0
36 -2 39 -29 39 -27 0 -29 3 -35 53 -3 28 -6 80 -6 114 l0 62 -32 3 c-31 3
-33 5 -36 48 -2 25 -1 78 3 118 7 71 7 72 36 72 l29 0 0 85 0 85 35 0 c34 0
35 1 35 40 0 39 1 40 35 40 34 0 35 1 35 40 l0 40 40 0 c40 0 40 0 40 40 l0
39 68 3 67 3 3 38 3 37 52 0 c29 0 76 3 105 6 51 7 52 7 52 40 l0 34 215 0
215 0 0 -34z m10400 -80 c0 -33 1 -33 53 -40 28 -3 76 -6 105 -6 l52 0 0 -160
0 -160 35 0 35 0 0 -384 c0 -210 3 -411 6 -445 7 -59 8 -61 35 -61 l29 0 0
-318 c0 -176 3 -374 7 -440 l6 -122 29 0 28 0 0 -125 0 -125 -52 0 c-29 0 -77
3 -105 6 -52 7 -53 7 -53 40 l0 32 -75 7 -75 7 0 34 c0 31 -3 34 -30 34 l-30
0 0 184 c0 100 -3 211 -6 245 l-7 61 -68 0 -69 0 0 40 0 40 -105 0 -105 0 0
40 0 40 -140 0 -140 0 0 40 0 40 -75 0 -75 0 0 -40 c0 -39 -1 -40 -35 -40 -34
0 -35 -1 -35 -40 0 -39 -1 -40 -35 -40 l-35 0 0 -80 0 -80 -35 0 c-34 0 -35
-1 -35 -40 l0 -40 -104 0 -105 0 -3 38 -3 37 -102 3 -103 3 0 39 c0 38 2 40
30 40 28 0 30 2 30 40 0 39 1 40 34 40 l34 0 7 80 7 80 34 0 c33 0 34 1 34 40
0 39 1 40 35 40 34 0 35 1 35 39 0 37 2 40 33 43 l32 3 3 78 3 77 34 0 c34 0
35 1 35 40 0 39 1 40 35 40 35 0 35 0 35 45 0 45 0 45 35 45 34 0 35 1 35 40
0 39 1 40 34 40 l34 0 7 75 c7 74 7 75 35 75 27 0 29 3 32 43 3 39 5 42 35 45
29 3 32 7 35 40 3 33 6 37 35 40 l31 3 7 80 7 79 34 0 c33 0 34 1 34 40 0 39
1 40 35 40 34 0 35 1 35 40 0 39 1 40 35 40 35 0 35 0 35 45 0 45 0 45 35 45
l35 0 0 75 0 75 35 0 c34 0 35 1 35 40 l0 40 110 0 110 0 0 -34z m-5918 -1823
l3 -78 31 -3 c30 -3 32 -6 38 -55 3 -29 6 -80 6 -114 l0 -63 35 0 35 0 0 -80
0 -80 35 0 35 0 0 -80 0 -80 -35 0 -35 0 0 75 0 75 -34 0 c-34 0 -35 1 -38 43
-3 41 -4 42 -40 45 l-36 3 1 117 2 117 -74 3 -74 3 6 -113 c3 -62 3 -134 0
-160 -5 -44 -7 -47 -37 -50 l-31 -3 -3 -82 -3 -83 -35 0 -35 0 3 123 3 122 32
3 32 3 3 117 3 117 33 3 32 3 0 80 0 79 35 0 c33 0 35 2 35 35 0 33 2 35 35
35 l34 0 3 -77z m-649 -3 c3 -3 8 -38 12 -77 l7 -73 -41 0 -41 0 0 40 0 40
-105 0 -105 0 0 -40 c0 -39 -1 -40 -35 -40 -34 0 -35 -1 -35 -39 l0 -39 70 -7
70 -7 0 -34 0 -34 59 0 c32 0 79 -3 104 -6 44 -6 46 -8 49 -43 3 -33 6 -36 36
-39 l32 -3 0 -80 0 -79 -29 0 c-27 0 -30 -3 -33 -37 -3 -35 -6 -38 -35 -41
-29 -3 -32 -7 -35 -40 l-3 -37 -107 -3 -108 -3 0 40 0 39 -70 7 -70 7 0 74 0
74 35 0 c34 0 35 -1 35 -40 0 -39 1 -40 35 -40 34 0 35 -1 35 -40 l0 -40 105
0 105 0 0 40 c0 39 1 40 35 40 35 0 35 0 35 45 0 43 -1 45 -29 45 -27 0 -30 3
-33 38 l-3 37 -107 3 -108 3 0 33 0 34 -70 7 -70 7 0 119 0 119 35 0 c34 0 35
1 35 41 l0 41 169 -4 c94 -2 172 -6 174 -8z m1227 -275 l0 -285 140 0 140 0 0
-38 0 -38 -112 -2 c-62 0 -141 1 -175 4 l-63 6 0 319 0 319 35 0 35 0 0 -285z
m1280 245 c0 -39 1 -40 35 -40 34 0 35 -1 35 -40 0 -39 -1 -40 -35 -40 -34 0
-35 1 -35 40 l0 40 -110 0 -110 0 0 -40 c0 -39 -1 -40 -35 -40 -35 0 -35 0
-35 -45 0 -45 0 -45 -35 -45 l-35 0 0 -115 0 -115 35 0 c35 0 35 0 35 -45 0
-45 0 -45 35 -45 34 0 35 -1 35 -40 l0 -40 59 0 c32 0 79 3 104 6 l46 7 6 73
7 74 34 0 34 0 0 -80 0 -80 -34 0 c-33 0 -35 -2 -38 -37 l-3 -38 -75 -3 c-41
-2 -103 0 -137 3 l-63 7 0 33 c0 32 -2 34 -37 37 -37 3 -38 4 -41 46 -3 41 -4
42 -38 42 l-34 0 0 160 0 160 35 0 35 0 0 80 0 80 35 0 c34 0 35 1 35 40 l0
40 145 0 145 0 0 -40z m-3280 -80 l0 -40 -70 0 -70 0 -1 -42 c-1 -24 0 -168 1
-320 l2 -278 -36 0 -36 0 -2 198 -3 197 -32 3 -33 3 0 58 c0 32 -3 86 -6 120
l-7 61 -33 0 c-33 0 -34 -1 -34 -40 0 -38 -2 -40 -30 -40 l-30 0 0 75 0 74 73
4 c39 1 134 4 210 5 l137 2 0 -40z m3845 -245 c1 -154 2 -299 3 -322 l2 -43
140 0 140 0 0 -34 c0 -33 -1 -33 -52 -40 -68 -8 -193 -8 -252 0 -44 6 -46 8
-46 40 0 32 -2 34 -35 34 -34 0 -35 1 -35 40 0 37 2 40 29 40 27 0 28 2 35 61
3 34 6 163 6 286 l0 224 33 -3 32 -3 0 -280z m-425 160 c0 -33 -2 -35 -35 -35
-33 0 -35 2 -35 35 0 33 2 35 35 35 33 0 35 -2 35 -35z m1140 -237 c-3 -404
-7 -368 35 -368 34 0 35 -1 35 -40 l0 -40 70 0 70 0 0 40 c0 39 1 40 34 40
l33 0 6 68 c4 37 7 111 7 165 l0 97 30 0 30 0 0 63 c0 34 3 86 6 115 6 48 9
52 34 52 26 0 28 -3 32 -52 3 -28 3 -100 0 -160 l-5 -108 -27 0 c-26 0 -27 -3
-34 -61 -3 -34 -6 -104 -6 -155 l0 -93 -70 -7 -70 -7 0 -38 0 -39 -70 0 -70 0
0 40 0 40 -69 0 -68 0 -7 80 -7 80 -30 0 -29 0 0 79 0 80 33 3 32 3 3 198 2
197 36 0 36 0 -2 -272z m-5346 141 c3 -34 6 -153 6 -264 0 -111 -3 -230 -6
-264 l-7 -61 -68 0 -69 0 0 -40 0 -40 -70 0 -70 0 0 40 0 40 -70 0 -70 0 0
125 0 125 -35 0 -35 0 0 195 0 195 35 0 35 0 0 -160 0 -160 35 0 35 0 0 -120
0 -120 35 0 c34 0 35 -1 35 -40 l0 -40 70 0 70 0 0 40 0 40 40 0 40 0 0 184
c0 100 -3 211 -6 245 -7 59 -8 61 -35 61 -27 0 -29 3 -29 40 l0 40 64 0 63 0
7 -61z m-924 -139 l0 -40 -104 0 -105 0 -3 -42 c-3 -40 -5 -43 -35 -46 -30 -3
-33 -6 -33 -37 0 -31 3 -34 33 -37 30 -3 32 -6 35 -45 l3 -43 58 0 c32 0 79 3
105 6 44 6 46 8 46 40 0 32 2 34 35 34 33 0 35 -2 35 -35 0 -33 -2 -35 -35
-35 -34 0 -35 -1 -35 -39 l0 -38 -52 -7 c-29 -3 -77 -6 -105 -6 l-53 0 0 -80
0 -80 35 0 35 0 0 -80 0 -80 -35 0 c-34 0 -35 1 -35 40 0 39 -1 40 -35 40
l-35 0 0 148 c0 81 -3 171 -6 200 -6 49 -8 52 -35 52 l-29 0 0 85 0 85 35 0
c33 0 35 2 35 35 l0 34 108 4 c59 1 122 4 140 5 31 2 32 1 32 -38z m7326 30
l84 0 0 -35 c0 -33 2 -35 35 -35 l35 0 0 -125 0 -125 -35 0 c-34 0 -35 -1 -35
-40 0 -39 1 -40 35 -40 l35 0 0 -120 0 -120 -40 0 -40 0 0 -40 0 -40 -140 0
-140 0 0 40 0 40 -70 0 -70 0 0 120 0 120 35 0 35 0 0 139 c0 76 3 165 6 199
7 59 8 61 38 65 17 3 58 3 90 1 32 -2 97 -4 142 -4z m-5168 -2336 c51 -7 52
-7 52 -40 l0 -34 53 0 c28 0 76 -3 105 -6 51 -7 52 -8 52 -39 l0 -33 75 -7 75
-7 0 -33 0 -33 70 -7 70 -7 0 -33 c0 -31 1 -32 52 -38 29 -4 76 -4 105 0 52 6
53 7 53 38 0 32 0 32 61 39 34 3 84 6 110 6 49 0 49 0 49 34 l0 34 210 7 210
7 0 34 0 34 465 0 465 0 0 -35 0 -35 68 0 c38 0 117 -3 175 -7 l107 -6 0 -32
c0 -32 0 -32 61 -39 34 -3 84 -6 110 -6 l49 0 0 -40 0 -40 70 0 70 0 0 -34 0
-34 69 -7 70 -7 3 -36 c3 -35 5 -37 41 -40 36 -3 37 -4 37 -43 0 -38 1 -39 35
-39 34 0 35 -1 35 -40 0 -39 1 -40 35 -40 34 0 35 -1 35 -40 0 -39 1 -40 35
-40 34 0 35 -1 35 -40 0 -39 1 -40 35 -40 l35 0 0 -80 0 -80 35 0 c34 0 35 -1
35 -40 l0 -40 70 0 70 0 0 -40 0 -39 73 -3 72 -3 3 -37 3 -37 67 -3 67 -3 3
-37 3 -36 70 -7 69 -7 0 -39 c0 -38 1 -39 35 -39 33 0 35 -2 35 -35 0 -33 2
-35 35 -35 34 0 35 -1 35 -39 0 -39 1 -40 38 -43 35 -3 37 -5 40 -40 3 -33 6
-37 35 -40 30 -3 32 -6 35 -45 3 -42 4 -43 38 -43 l34 0 0 -74 c0 -41 -3 -77
-7 -79 -5 -3 -70 -2 -145 0 l-138 6 0 33 c0 32 -2 34 -35 34 l-35 0 0 -80 0
-80 34 0 c33 0 35 -2 38 -37 l3 -38 73 -3 72 -3 0 -39 0 -40 65 0 65 0 0 -40
c0 -39 1 -40 35 -40 34 0 35 -1 35 -40 0 -38 -2 -40 -30 -40 -30 0 -30 0 -30
-59 0 -32 -3 -85 -6 -119 -7 -59 -8 -61 -38 -64 -28 -3 -31 -7 -34 -40 -3 -33
-6 -37 -35 -40 -29 -3 -32 -6 -35 -40 -3 -33 -6 -37 -35 -40 -29 -3 -32 -7
-35 -40 l-3 -36 -70 -7 -69 -7 0 -33 0 -33 -139 -7 -140 -7 -3 -37 c-3 -32 -6
-36 -35 -39 -29 -3 -32 -7 -35 -40 -3 -35 -5 -37 -40 -40 -37 -3 -38 -4 -38
-43 0 -38 -1 -39 -35 -39 -34 0 -35 -1 -35 -40 0 -39 -1 -40 -35 -40 -34 0
-35 -1 -35 -40 0 -39 -1 -40 -35 -40 l-35 0 0 148 c0 81 -3 171 -6 200 l-7 52
-96 0 c-53 0 -147 3 -208 7 l-113 6 0 39 c0 37 -1 38 -35 38 -33 0 -35 2 -35
35 0 33 -2 35 -35 35 -34 0 -35 1 -35 39 l0 38 -52 7 c-29 3 -108 6 -175 6
l-123 0 0 -39 c0 -39 -1 -40 -37 -43 -37 -3 -38 -4 -41 -45 -3 -42 -4 -43 -38
-43 l-34 0 0 -280 0 -280 34 0 34 0 7 -80 7 -80 64 0 64 0 0 -40 0 -40 70 0
70 0 0 -40 0 -39 113 -3 112 -3 3 -37 3 -38 210 0 209 0 0 34 c0 32 2 34 46
40 26 3 89 6 140 6 l94 0 0 40 0 40 76 0 77 0 -6 -67 c-4 -38 -7 -92 -7 -120
0 -52 -1 -53 -29 -53 -27 0 -28 -2 -35 -61 -3 -34 -6 -88 -6 -120 l0 -59 -35
0 -35 0 0 -80 0 -80 -35 0 c-34 0 -35 -1 -35 -40 0 -39 -1 -40 -35 -40 -35 0
-35 0 -35 -45 0 -45 0 -45 -34 -45 -33 0 -35 -2 -38 -37 l-3 -38 -67 -3 -68
-3 0 -34 c0 -33 -2 -35 -35 -35 -33 0 -35 2 -35 35 l0 34 -72 3 -73 3 -3 36
-3 36 -157 6 c-200 9 -380 9 -515 0 l-107 -6 0 -39 c0 -37 -1 -38 -35 -38
l-35 0 0 -400 0 -400 -35 0 -35 0 0 -104 c0 -56 -3 -131 -6 -165 -7 -59 -8
-61 -35 -61 l-29 0 0 -99 c0 -54 -3 -126 -6 -160 -7 -58 -8 -61 -34 -61 -26 0
-27 -3 -34 -61 -3 -34 -6 -88 -6 -120 0 -58 0 -59 -29 -59 -27 0 -28 -2 -35
-61 -3 -34 -6 -88 -6 -120 l0 -59 -35 0 -35 0 0 -85 0 -85 -35 0 -35 0 0 -80
0 -80 -35 0 -35 0 0 -115 0 -115 -34 0 -34 0 -7 -85 -7 -85 -29 0 c-27 0 -29
-2 -29 -40 0 -39 -1 -40 -35 -40 l-35 0 0 -80 0 -80 -34 0 -34 0 -7 -80 c-7
-79 -7 -80 -35 -80 -28 0 -28 -1 -35 -80 l-7 -80 -34 0 c-34 0 -34 -1 -34 -45
0 -45 0 -45 -35 -45 l-35 0 0 -75 0 -75 -35 0 c-35 0 -35 0 -35 -45 0 -45 0
-45 -35 -45 l-35 0 0 -75 0 -75 -35 0 c-35 0 -35 0 -35 -45 0 -44 0 -45 -34
-45 l-34 0 -7 -80 -7 -80 -34 0 c-33 0 -34 -1 -34 -40 0 -39 -1 -40 -35 -40
-34 0 -35 -1 -35 -40 l0 -40 -745 0 -745 0 0 80 0 80 -35 0 -35 0 0 80 0 80
-35 0 -35 0 0 80 0 80 -34 0 c-34 0 -35 1 -38 43 -3 39 -5 42 -35 45 -29 3
-32 7 -35 40 -3 34 -6 37 -35 40 -29 3 -32 7 -35 40 -3 34 -6 37 -35 40 -29 3
-32 7 -35 40 -3 35 -5 37 -40 40 -37 3 -38 4 -38 43 0 38 -1 39 -35 39 -34 0
-35 1 -35 40 0 39 -1 40 -34 40 l-34 0 -7 74 -7 75 -31 3 c-30 3 -32 6 -35 46
-3 41 -4 42 -38 42 -33 0 -34 1 -34 40 0 39 -1 40 -35 40 -34 0 -35 1 -35 40
0 37 -2 40 -29 40 -29 0 -29 0 -36 80 l-7 80 -34 0 -34 0 0 80 0 80 -35 0 -35
0 0 120 0 120 -35 0 -35 0 0 165 0 165 -35 0 -35 0 0 440 0 440 35 0 35 0 0
-75 0 -75 35 0 c35 0 35 0 35 -45 0 -45 0 -45 35 -45 l35 0 0 -80 0 -80 35 0
c34 0 35 -1 35 -40 0 -39 1 -40 35 -40 34 0 35 -1 35 -40 0 -39 1 -40 35 -40
34 0 35 -1 35 -40 0 -39 1 -40 34 -40 34 0 35 -1 38 -42 3 -40 5 -43 35 -46
29 -3 32 -7 35 -40 3 -34 6 -37 35 -40 29 -3 32 -7 35 -40 3 -35 5 -37 41 -40
35 -3 37 -5 37 -38 0 -32 2 -34 35 -34 34 0 35 -1 35 -40 0 -39 1 -40 35 -40
34 0 35 -1 35 -39 0 -39 1 -40 38 -43 35 -3 37 -5 40 -40 l3 -37 64 -6 64 -7
3 -37 c3 -34 5 -36 41 -39 35 -3 37 -5 37 -37 l0 -34 70 -7 70 -7 0 -38 c0
-38 1 -39 35 -39 33 0 35 -2 35 -34 l0 -34 70 -7 70 -7 0 -39 c0 -39 0 -39 40
-39 l40 0 0 -40 c0 -39 1 -40 35 -40 34 0 35 -1 35 -40 l0 -40 65 0 65 0 0
-40 0 -40 40 0 40 0 0 -40 c0 -39 1 -40 35 -40 34 0 35 -1 35 -40 0 -39 1 -40
34 -40 34 0 35 -1 38 -42 3 -40 5 -43 35 -46 l31 -3 7 -75 7 -74 34 0 c33 0
34 -1 34 -39 0 -37 2 -40 33 -43 29 -3 32 -6 35 -40 3 -33 6 -37 35 -40 30 -3
32 -6 35 -45 3 -42 4 -43 38 -43 l34 0 0 -75 0 -75 35 0 c35 0 35 0 35 -45 0
-45 0 -45 35 -45 l34 0 3 -77 3 -78 31 -3 31 -3 7 62 c3 34 6 88 6 120 0 59 0
59 30 59 l30 0 0 80 0 80 -28 0 -29 0 -6 128 c-4 70 -7 162 -7 205 l0 77 -29
0 c-27 0 -28 2 -35 61 -3 34 -6 88 -6 120 l0 59 -35 0 -35 0 0 80 0 80 -35 0
c-34 0 -35 1 -35 40 0 39 -1 40 -34 40 l-34 0 -7 79 -7 80 -31 3 c-29 3 -32 7
-35 40 -3 33 -6 37 -35 40 -29 3 -32 6 -35 40 -3 33 -6 37 -35 40 -29 3 -32 6
-35 41 -3 35 -5 37 -38 37 -33 0 -34 1 -34 40 0 39 -1 40 -35 40 -34 0 -35 1
-35 39 l0 39 -70 7 -70 7 0 39 c0 38 -1 39 -35 39 -34 0 -35 1 -35 40 0 39 -1
40 -34 40 -33 0 -35 2 -38 38 l-3 37 -67 3 -67 3 -3 37 c-3 35 -5 37 -40 40
-37 3 -38 4 -38 43 l0 39 -70 0 -70 0 0 40 c0 39 -1 40 -35 40 -34 0 -35 1
-35 40 l0 40 -40 0 c-40 0 -40 0 -40 39 l0 39 -64 7 -64 6 -7 75 -7 74 -34 0
c-33 0 -34 1 -34 40 0 39 -1 40 -35 40 -35 0 -35 0 -35 45 0 45 0 45 -35 45
l-35 0 0 75 0 75 -35 0 c-35 0 -35 0 -35 45 0 45 0 45 -35 45 l-35 0 0 63 c0
34 -3 86 -6 115 -6 49 -8 52 -35 52 -29 0 -29 0 -29 64 0 34 -3 91 -6 125 -7
59 -8 61 -35 61 l-29 0 0 78 c0 44 -3 134 -7 200 l-6 122 -29 0 -28 0 0 365 0
365 30 0 c28 0 30 2 30 40 0 39 1 40 34 40 l34 0 7 -79 7 -80 31 -3 32 -3 3
-77 3 -78 34 0 35 0 0 -80 0 -80 34 0 c34 0 35 -1 38 -42 3 -40 5 -43 35 -46
29 -3 32 -7 35 -40 3 -34 6 -37 36 -40 30 -3 32 -6 32 -43 0 -38 1 -39 35 -39
34 0 35 -1 35 -40 0 -39 1 -40 35 -40 34 0 35 -1 35 -40 0 -39 1 -40 34 -40
33 0 35 -2 38 -37 3 -36 5 -38 41 -41 36 -3 37 -4 37 -43 0 -38 1 -39 35 -39
34 0 35 -1 35 -40 l0 -40 70 0 70 0 0 -40 0 -40 70 0 70 0 0 -40 0 -40 75 0
75 0 0 -40 0 -40 70 0 70 0 0 -39 c0 -39 1 -40 38 -43 35 -3 37 -5 40 -40 l3
-37 67 -3 67 -3 3 -37 3 -38 65 0 64 0 0 -40 0 -40 40 0 c40 0 40 0 40 -39 l0
-39 70 -7 70 -7 0 -39 c0 -38 1 -39 35 -39 33 0 35 -2 35 -34 0 -33 2 -35 38
-38 35 -3 37 -5 40 -40 l3 -37 65 -6 64 -7 0 -39 c0 -38 1 -39 35 -39 34 0 35
-1 35 -40 0 -39 1 -40 35 -40 34 0 35 -1 35 -40 0 -39 1 -40 34 -40 33 0 35
-2 38 -37 3 -36 5 -38 41 -41 l37 -3 0 -80 0 -79 35 0 c34 0 35 -1 35 -40 0
-39 1 -40 35 -40 34 0 35 -1 35 -40 0 -39 1 -40 35 -40 l35 0 0 -79 0 -80 38
-3 c35 -3 37 -5 40 -40 3 -35 6 -38 33 -38 l29 0 0 200 0 200 -29 0 -29 0 -7
165 -7 165 -28 0 c-25 0 -28 3 -34 53 -3 28 -6 80 -6 114 l0 62 -32 3 -33 3
-3 78 -3 77 -34 0 c-35 0 -35 0 -35 45 0 45 0 45 -35 45 l-35 0 0 75 0 75 -34
0 c-34 0 -35 1 -38 43 -3 39 -5 42 -35 45 -31 3 -33 6 -33 43 0 38 -1 39 -35
39 -34 0 -35 1 -35 40 0 39 -1 40 -35 40 -34 0 -35 1 -35 40 l0 40 -40 0 c-40
0 -40 0 -40 39 0 37 -2 40 -32 43 -30 3 -33 6 -36 41 -3 35 -5 37 -38 37 -33
0 -34 1 -34 40 0 39 -1 40 -35 40 -34 0 -35 1 -35 40 0 39 -1 40 -35 40 -34 0
-35 1 -35 40 0 39 -1 40 -35 40 -34 0 -35 1 -35 39 0 39 -1 40 -37 43 -36 3
-38 5 -41 40 l-3 37 -64 6 -64 7 -3 37 c-3 34 -5 36 -40 39 -37 3 -38 4 -38
43 0 38 -1 39 -35 39 -34 0 -35 1 -35 40 0 39 -1 40 -35 40 -34 0 -35 1 -35
40 0 39 -1 40 -35 40 -33 0 -35 2 -35 34 0 33 -2 35 -37 38 -37 3 -38 4 -41
46 -3 41 -4 42 -38 42 -32 0 -34 2 -34 34 l0 34 -65 7 -65 7 0 39 c0 38 -1 39
-34 39 l-34 0 -7 80 -7 80 -34 0 c-33 0 -34 1 -34 40 0 39 -1 40 -35 40 -34 0
-35 1 -35 40 0 39 -1 40 -35 40 -35 0 -35 0 -35 45 0 45 0 45 -35 45 l-35 0 0
75 0 75 -35 0 -35 0 0 58 c0 31 -3 87 -7 125 -6 66 -6 67 -34 67 l-29 0 0 240
0 240 29 0 c27 0 28 2 35 61 3 34 6 88 6 120 0 58 0 59 29 59 29 0 29 0 36 80
l7 80 34 0 34 0 0 80 0 80 35 0 c35 0 35 0 35 45 0 45 0 45 35 45 34 0 35 1
35 40 0 39 1 40 35 40 34 0 35 1 35 40 0 39 1 40 34 40 l34 0 7 74 7 75 31 3
32 3 3 648 2 647 88 0 c48 0 111 -3 140 -6z m2687 -4994 c7 -79 7 -80 35 -80
28 0 28 -1 35 -79 l7 -80 31 -3 32 -3 3 -77 3 -77 32 -3 32 -3 3 -117 3 -118
34 0 35 0 0 -125 0 -125 34 0 33 0 5 -359 c3 -197 3 -523 0 -725 l-5 -366 -33
0 -34 0 0 -120 0 -120 -35 0 -34 0 -3 -122 -3 -123 -32 -3 -32 -3 -3 -117 -3
-117 -32 -3 -31 -3 -7 -80 c-7 -78 -7 -79 -35 -79 -28 0 -28 -1 -35 -80 -7
-79 -7 -80 -35 -80 -28 0 -28 -1 -35 -80 l-7 -80 -529 0 -529 0 0 80 0 80 35
0 c34 0 35 1 35 40 0 39 1 40 35 40 34 0 35 1 35 40 0 39 1 40 35 40 34 0 35
1 35 40 0 39 1 40 35 40 34 0 35 1 35 40 0 39 1 40 35 40 35 0 35 0 35 45 0
45 0 45 35 45 l34 0 3 78 3 77 31 3 c32 3 32 3 39 77 l7 74 31 3 c30 3 32 6
35 46 3 39 5 42 31 42 27 0 28 2 35 61 3 34 6 88 6 120 l0 59 35 0 35 0 0 80
0 80 35 0 35 0 0 85 0 85 35 0 35 0 0 160 0 160 35 0 35 0 0 139 c0 76 3 166
6 200 7 59 8 61 35 61 l29 0 0 138 c0 77 3 221 7 320 l6 182 29 0 28 0 0 285
0 285 -30 0 -30 0 0 80 0 80 64 0 64 0 7 -80z m925 -1010 c0 -39 1 -40 35 -40
l35 0 0 -80 0 -80 35 0 34 0 3 -82 3 -83 33 -3 c32 -3 32 -4 32 -56 0 -29 3
-81 6 -115 7 -58 8 -61 34 -61 26 0 27 -2 33 -67 4 -38 7 -94 7 -125 0 -57 0
-58 28 -58 l29 0 6 -112 c9 -147 9 -900 0 -1056 l-6 -122 -27 0 -28 0 -7 -160
-7 -160 -34 0 c-33 0 -34 -1 -34 -40 l0 -40 -425 0 -425 0 0 80 0 80 35 0 c34
0 35 1 35 40 0 39 1 40 34 40 34 0 35 1 38 43 3 39 5 42 35 45 l32 3 3 77 3
77 32 3 31 3 7 80 c7 78 7 79 35 79 26 0 27 3 34 61 3 34 6 88 6 120 0 58 0
59 29 59 27 0 29 3 35 53 3 28 6 80 6 114 l0 62 33 3 32 3 3 168 2 167 29 0
c27 0 29 3 35 53 3 28 6 280 6 560 l0 507 35 0 c34 0 35 -1 35 -40z m852
-1127 c3 -36 5 -38 41 -41 36 -3 37 -4 37 -43 0 -36 2 -39 29 -39 29 0 29 0
36 -80 l7 -80 34 0 34 0 0 -80 0 -80 35 0 35 0 0 -120 0 -120 35 0 35 0 0
-144 c0 -78 3 -171 6 -205 7 -59 8 -61 35 -61 26 0 29 -3 29 -35 0 -32 -2 -35
-30 -35 -29 0 -30 -2 -30 -45 0 -43 1 -45 30 -45 28 0 30 -3 30 -34 0 -32 -3
-35 -32 -38 -31 -3 -33 -6 -36 -45 l-3 -43 -320 0 -319 0 0 80 0 80 35 0 35 0
0 68 c0 37 3 91 6 120 6 49 8 52 35 52 29 0 29 0 29 64 0 34 3 91 6 125 7 59
8 61 35 61 l29 0 0 400 0 400 34 0 c33 0 35 -2 38 -37z m-6472 -163 c0 -39 1
-40 35 -40 34 0 35 -1 35 -39 0 -37 2 -40 33 -43 29 -3 32 -6 35 -40 3 -33 6
-37 35 -40 30 -3 32 -6 35 -45 3 -40 5 -43 32 -43 26 0 29 -4 32 -37 3 -36 5
-38 41 -41 36 -3 37 -4 37 -43 0 -38 1 -39 34 -39 33 0 35 -2 38 -37 3 -35 6
-38 36 -41 29 -3 32 -6 32 -37 0 -32 2 -34 38 -37 35 -3 37 -5 40 -39 l3 -37
64 -7 64 -6 3 -37 c3 -35 5 -37 41 -40 35 -3 37 -5 37 -37 0 -31 3 -34 33 -37
29 -3 32 -6 35 -40 3 -36 5 -38 38 -38 34 0 34 0 34 -45 0 -45 0 -45 35 -45
34 0 35 -1 35 -40 0 -39 1 -40 35 -40 l35 0 0 -80 0 -80 -465 0 -465 0 0 39
c0 37 -2 40 -32 43 -30 3 -33 6 -36 41 -3 33 -6 37 -31 37 l-28 0 -6 128 c-4
70 -7 162 -7 205 l0 77 -30 0 -30 0 0 360 0 360 35 0 c34 0 35 -1 35 -40z
m3550 -2439 c0 -32 3 -86 6 -120 l7 -61 -112 0 -111 0 0 -40 c0 -39 -1 -40
-35 -40 l-35 0 0 -80 0 -80 -35 0 c-34 0 -35 1 -35 40 0 39 -1 40 -35 40 -34
0 -35 1 -35 40 l0 40 -105 0 -105 0 0 40 c0 39 1 40 35 40 l35 0 0 80 0 80
123 0 c67 0 146 3 175 6 51 7 52 7 52 40 l0 34 105 0 105 0 0 -59z m430 -221
c0 -39 1 -40 35 -40 34 0 35 1 35 40 l0 40 40 0 c40 0 40 0 40 -39 0 -37 2
-40 33 -43 l32 -3 3 -77 3 -78 34 0 c34 0 35 -1 35 -40 0 -39 1 -40 35 -40 34
0 35 -1 35 -40 0 -39 1 -40 35 -40 34 0 35 -1 35 -40 0 -39 -1 -40 -35 -40
l-35 0 0 -86 0 -85 -37 3 c-36 3 -38 5 -41 41 -3 33 -6 37 -32 37 -27 0 -29 3
-32 43 -3 39 -5 42 -35 45 -30 3 -33 6 -33 38 l0 34 -75 0 -75 0 0 -35 c0 -33
-2 -35 -35 -35 l-35 0 0 80 0 80 35 0 35 0 0 80 0 80 -35 0 c-34 0 -35 1 -35
40 0 39 -1 40 -35 40 -34 0 -35 1 -35 40 l0 40 70 0 70 0 0 -40z m-1280 -80
c0 -39 1 -40 35 -40 34 0 35 -1 35 -40 0 -39 -1 -40 -35 -40 -34 0 -35 -1 -35
-40 0 -39 -1 -40 -35 -40 l-35 0 0 -85 0 -85 -35 0 c-33 0 -35 -2 -35 -35 l0
-35 -70 0 -70 0 0 35 c0 33 2 35 35 35 l35 0 0 85 0 85 35 0 35 0 0 75 0 75
35 0 c35 0 35 0 35 45 0 45 0 45 35 45 34 0 35 -1 35 -40z m640 -325 c0 -45 0
-45 35 -45 34 0 35 -1 35 -40 l0 -40 84 0 c45 0 111 3 145 6 l61 7 0 33 c0 32
2 34 35 34 l35 0 0 -75 0 -75 -34 0 c-34 0 -35 -1 -38 -42 -3 -40 -5 -43 -34
-46 -30 -3 -31 -5 -37 -63 -4 -32 -4 -86 0 -119 l6 -60 33 0 c33 0 34 -1 34
-40 0 -39 1 -40 35 -40 34 0 35 -1 35 -41 l0 -42 -177 4 -178 4 -3 -42 c-3
-42 -4 -43 -38 -43 l-34 0 0 -80 0 -80 -35 0 -35 0 0 80 0 80 -35 0 -35 0 0
119 0 118 -70 7 -70 7 0 35 c0 33 -1 34 -40 34 -40 0 -40 0 -40 39 0 39 1 40
38 43 35 3 37 5 40 41 l3 37 70 0 69 0 0 159 0 160 38 4 c105 11 102 12 102
-38z m-710 -365 l0 -80 76 0 77 0 -7 -52 c-3 -29 -6 -63 -6 -75 0 -17 -7 -22
-32 -25 l-33 -3 -3 -162 -2 -163 -35 0 c-34 0 -35 1 -35 40 0 39 -1 40 -35 40
-34 0 -35 -1 -35 -40 0 -39 -1 -40 -34 -40 l-33 0 -7 61 c-3 34 -6 88 -6 120
0 58 0 59 -29 59 -28 0 -29 1 -36 75 -3 41 -4 79 0 85 3 5 19 10 35 10 28 0
28 1 35 75 l7 75 34 0 c33 0 34 1 34 40 0 39 1 40 35 40 l35 0 0 -80z m1710
-194 l0 -114 70 -7 70 -7 0 -39 c0 -38 -1 -39 -35 -39 l-35 0 0 -80 0 -80 -35
0 -35 0 0 -67 c0 -38 -3 -92 -6 -120 -6 -50 -8 -53 -35 -53 -26 0 -29 3 -29
35 l0 35 -70 0 -70 0 0 -34 0 -33 -67 -7 c-37 -4 -70 -3 -75 2 -5 5 -8 25 -6
43 3 30 7 34 36 37 l32 3 0 80 0 79 -35 0 c-34 0 -35 1 -35 40 0 39 -1 40 -35
40 -34 0 -35 1 -35 40 l0 40 145 0 145 0 0 45 c0 43 1 45 29 45 27 0 29 3 35
53 3 28 6 80 6 115 l0 62 35 0 35 0 0 -114z m-1500 -491 c0 -33 2 -35 35 -35
34 0 35 -1 35 -39 l0 -38 55 -6 c30 -3 80 -3 110 0 l55 6 0 38 0 39 70 0 70 0
0 -40 c0 -39 -1 -40 -35 -40 l-35 0 0 -80 0 -80 35 0 c34 0 35 -1 35 -40 0
-39 1 -40 35 -40 34 0 35 -1 35 -39 l0 -39 -70 -7 -70 -7 0 -74 0 -74 -34 0
c-33 0 -35 2 -38 38 -3 34 -6 37 -35 40 -29 3 -32 7 -35 40 -3 35 -5 37 -40
40 -36 3 -38 5 -38 38 l0 34 -52 0 c-29 0 -77 3 -105 6 l-53 7 0 38 c0 38 1
39 35 39 l35 0 0 120 0 120 -30 0 c-28 0 -30 3 -30 35 0 32 2 35 30 35 28 0
30 -3 30 -35z m1070 -320 c0 -45 0 -45 35 -45 34 0 35 -1 35 -40 0 -38 -2 -40
-29 -40 -27 0 -30 -3 -33 -37 l-3 -38 -72 -3 -73 -3 0 -33 c0 -33 -1 -33 -52
-40 -29 -3 -77 -6 -105 -6 -45 0 -53 3 -53 19 0 10 -3 46 -6 80 l-7 61 59 0
c32 0 83 3 112 6 51 7 52 7 52 40 0 32 2 34 35 34 35 0 35 0 35 45 0 45 0 45
35 45 35 0 35 0 35 -45z"/>
<path d="M13018 21023 l-3 -78 -32 -3 -33 -3 0 -58 c0 -32 -3 -86 -6 -120 -7
-58 -8 -61 -34 -61 -28 0 -28 -1 -35 -80 -7 -79 -7 -80 -35 -80 -26 0 -27 -3
-33 -60 -4 -33 -4 -87 0 -120 l6 -60 243 0 244 0 0 80 0 80 -35 0 -35 0 0 120
0 120 -35 0 -35 0 0 125 0 125 -35 0 -35 0 0 75 0 75 -35 0 -34 0 -3 -77z"/>
<path d="M10598 21213 c-2 -27 -2 -225 0 -440 l5 -393 27 0 27 0 6 -182 c4
-99 7 -228 7 -285 l0 -103 178 0 c99 0 227 3 285 7 l107 6 0 34 c0 31 2 33 35
33 34 0 35 1 35 40 0 39 1 40 35 40 35 0 35 0 35 45 0 45 0 45 35 45 l35 0 0
400 0 400 -35 0 -35 0 0 85 0 85 -34 0 -34 0 -7 74 -7 75 -69 7 -69 7 0 33 0
34 -279 0 -279 0 -4 -47z"/>
<path d="M8820 20662 c0 -66 -3 -174 -7 -240 l-6 -122 -29 0 c-27 0 -28 -2
-28 -47 0 -27 -3 -99 -7 -160 l-6 -113 146 0 147 0 0 34 c0 33 1 33 53 40 28
3 76 6 105 6 l52 0 0 40 c0 38 -2 40 -29 40 l-30 0 -7 80 -7 80 -33 0 -34 0 0
80 0 80 -34 0 c-34 0 -35 1 -38 43 -3 39 -5 42 -35 45 l-33 3 0 74 0 74 -37 3
c-36 3 -38 5 -41 41 -3 34 -6 37 -33 37 l-29 0 0 -118z"/>
<path d="M17507 20213 c-4 -3 -7 -21 -7 -40 0 -31 -2 -33 -35 -33 -34 0 -35
-1 -35 -39 0 -37 -2 -40 -32 -43 l-33 -3 -3 -77 -3 -78 -34 0 c-34 0 -35 -1
-35 -40 0 -39 -1 -40 -35 -40 -35 0 -35 0 -35 -45 0 -44 0 -45 -34 -45 -33 0
-33 0 -39 -57 -3 -32 -3 -83 0 -114 l6 -57 51 -6 c28 -3 90 -6 139 -6 l87 0 0
-40 0 -40 75 0 75 0 0 163 c0 90 -3 272 -7 405 l-6 242 -27 0 c-15 0 -30 -3
-33 -7z"/>
<path d="M15763 18443 c-31 -4 -31 -5 -38 -73 -4 -38 -4 -74 0 -79 3 -6 22
-11 41 -11 33 0 34 -1 34 -40 l0 -40 -40 0 -40 0 0 -40 c0 -37 -2 -40 -29 -40
-27 0 -29 -3 -35 -52 -13 -112 -16 -108 64 -108 l70 0 0 -40 0 -40 75 0 75 0
0 40 c0 39 1 40 35 40 34 0 35 1 35 40 0 39 -1 40 -35 40 -34 0 -35 1 -35 39
l0 39 -70 7 -70 7 0 34 0 34 53 0 c28 0 76 3 105 6 l52 7 0 112 0 112 -52 7
c-55 6 -140 6 -195 -1z"/>
<path d="M12240 15420 c0 -39 -1 -40 -34 -40 l-34 0 -7 -80 -7 -80 -34 0 c-33
0 -34 -1 -34 -40 0 -39 -1 -40 -35 -40 l-35 0 0 -80 0 -80 -35 0 -35 0 0 -67
c0 -38 -3 -92 -6 -120 -6 -50 -8 -53 -35 -53 l-29 0 0 -165 0 -165 29 0 c27 0
28 -2 35 -61 3 -34 6 -88 6 -120 l0 -59 35 0 35 0 0 -80 0 -80 70 0 70 0 0
-40 c0 -39 1 -40 35 -40 34 0 35 -1 35 -40 0 -39 1 -40 35 -40 34 0 35 -1 35
-39 0 -39 1 -40 38 -43 35 -3 37 -5 40 -40 3 -33 6 -37 35 -40 30 -3 32 -6 35
-45 3 -42 4 -43 38 -43 l34 0 0 -75 0 -75 35 0 c35 0 35 0 35 -45 0 -45 0 -45
35 -45 l35 0 0 245 0 245 -35 0 -35 0 0 80 0 80 -35 0 -35 0 0 80 0 80 -35 0
c-34 0 -35 1 -35 40 0 39 -1 40 -34 40 l-33 0 -7 80 c-7 79 -8 80 -35 80 -27
0 -28 2 -34 68 -4 37 -7 93 -7 125 0 57 0 57 -30 57 l-30 0 0 200 0 200 29 0
28 0 7 139 c4 76 4 166 0 200 -6 59 -8 61 -35 61 -27 0 -29 -3 -29 -40z"/>
<path d="M12880 15420 c0 -38 2 -40 30 -40 28 0 30 -2 30 -40 l0 -40 40 0 40
0 0 -40 c0 -39 1 -40 35 -40 34 0 35 -1 35 -40 0 -39 1 -40 35 -40 34 0 35 -1
35 -39 0 -39 1 -40 38 -43 35 -3 37 -5 40 -39 l3 -37 64 -7 64 -6 3 -37 c3
-34 6 -37 35 -40 29 -3 32 -7 35 -40 3 -34 6 -37 36 -40 29 -3 32 -6 32 -37 0
-19 5 -37 10 -40 6 -4 40 -3 75 0 l65 7 0 33 0 33 70 7 70 7 0 39 c0 38 1 39
34 39 33 0 35 2 38 38 3 35 5 37 42 40 l39 3 -7 61 c-3 34 -6 69 -6 79 0 18
-10 19 -140 19 l-140 0 0 40 0 40 -105 0 -105 0 0 40 0 40 -110 0 -110 0 0 40
0 40 -105 0 -105 0 0 40 0 40 -70 0 -70 0 0 -40z"/>
<path d="M11095 14496 l-7 -75 -31 -3 -32 -3 -3 -77 -3 -77 -32 -3 -32 -3 -3
-82 -3 -83 -34 0 -35 0 0 -200 0 -200 -35 0 c-34 0 -35 -1 -35 -40 0 -39 1
-40 35 -40 l35 0 0 -147 c0 -82 3 -172 6 -200 6 -50 8 -53 35 -53 28 0 29 -2
29 -45 0 -45 0 -45 35 -45 34 0 35 -1 35 -40 0 -39 1 -40 34 -40 l34 0 7 -80
7 -80 64 0 64 0 0 -40 0 -40 40 0 40 0 0 -40 c0 -39 1 -40 35 -40 34 0 35 -1
35 -40 l0 -40 70 0 70 0 0 -40 c0 -39 1 -40 35 -40 34 0 35 -1 35 -39 l0 -38
70 -7 70 -7 0 -35 c0 -33 1 -34 40 -34 l40 0 0 -40 0 -40 70 0 70 0 0 -40 c0
-39 1 -40 35 -40 34 0 35 -1 35 -39 l0 -39 70 -7 70 -7 0 -33 c0 -32 2 -34 38
-37 35 -3 37 -5 40 -40 3 -33 6 -37 35 -40 29 -3 32 -6 35 -40 3 -33 6 -37 35
-40 29 -3 32 -6 35 -40 3 -36 5 -38 38 -38 33 0 34 -1 34 -39 0 -37 2 -40 33
-43 30 -3 32 -6 35 -45 3 -42 4 -43 38 -43 33 0 34 -1 34 -40 0 -39 1 -40 35
-40 34 0 35 -1 35 -40 0 -39 1 -40 35 -40 l35 0 0 80 0 80 -29 0 c-27 0 -28 2
-35 61 -3 34 -6 106 -6 160 l0 99 -35 0 -35 0 0 85 0 85 -35 0 -35 0 0 75 0
75 -35 0 c-35 0 -35 0 -35 45 0 45 0 45 -35 45 -34 0 -35 1 -35 40 0 39 -1 40
-35 40 -34 0 -35 1 -35 40 0 39 -1 40 -34 40 l-34 0 -7 80 -7 80 -64 0 -64 0
0 40 0 40 -40 0 -40 0 0 40 c0 39 -1 40 -35 40 -34 0 -35 1 -35 39 0 39 -1 40
-37 43 -36 3 -38 5 -41 41 l-3 37 -65 0 -64 0 0 39 c0 39 -1 40 -37 43 -36 3
-38 5 -41 41 -3 35 -5 37 -38 37 -33 0 -34 1 -34 40 0 39 -1 40 -35 40 -34 0
-35 1 -35 40 0 39 -1 40 -35 40 -34 0 -35 1 -35 40 0 39 -1 40 -35 40 l-35 0
0 80 0 80 -35 0 -34 0 -3 83 -3 82 -31 3 -32 3 -7 160 -7 159 -29 0 -29 0 0
188 c0 103 -3 211 -6 240 -6 49 -9 52 -34 52 -27 0 -28 -2 -35 -74z"/>
</g>
</svg>
