<?xml version="1.0" standalone="no"?>
<!DOCTYPE svg PUBLIC "-//W3C//DTD SVG 20010904//EN"
 "http://www.w3.org/TR/2001/REC-SVG-20010904/DTD/svg10.dtd">
<svg version="1.0" xmlns="http://www.w3.org/2000/svg"
 width="238.000000pt" height="250.000000pt" viewBox="0 0 238.000000 250.000000"
 preserveAspectRatio="xMidYMid meet">

<g transform="translate(0.000000,250.000000) scale(0.100000,-0.100000)"
fill="#000000" stroke="none">
<path d="M995 2319 c-285 -27 -506 -95 -600 -184 l-36 -33 4 -579 c3 -550 4
-581 24 -648 43 -143 77 -218 153 -330 133 -195 392 -360 602 -382 62 -6 177
17 240 48 21 11 43 19 51 19 20 0 155 91 216 147 63 56 155 167 199 238 36 60
65 130 100 245 l26 85 3 588 c4 525 3 591 -11 606 -25 27 -181 97 -278 125
-177 51 -483 75 -693 55z m43 -114 l29 -24 23 24 c17 18 34 25 62 25 l39 0 -3
-132 -3 -133 -27 -3 -28 -3 0 107 c0 106 0 107 -20 89 -17 -16 -20 -31 -20
-107 l0 -89 -27 3 -28 3 0 85 c0 47 -4 91 -8 98 -20 30 -27 5 -27 -93 l0 -105
-30 0 -30 0 0 134 c0 132 0 135 23 139 41 8 45 7 75 -18z m232 -45 c0 -38 2
-70 4 -70 29 0 36 16 36 77 0 55 2 64 16 59 9 -3 22 -6 30 -6 18 0 20 -121 2
-149 -9 -14 -8 -27 5 -60 22 -55 21 -61 -8 -61 -19 0 -29 10 -45 40 -23 45
-40 45 -40 -1 0 -24 -4 -29 -25 -29 l-25 0 0 135 0 135 25 0 c24 0 25 -2 25
-70z m-350 36 c0 -22 -5 -25 -42 -28 l-43 -3 -3 -47 -3 -48 45 0 c39 0 46 -3
46 -20 0 -15 -7 -20 -26 -20 -33 0 -64 -17 -64 -35 0 -12 10 -13 45 -8 41 5
45 4 45 -15 0 -27 -3 -28 -77 -37 l-63 -7 0 42 c0 23 -5 50 -10 61 -7 13 -7
19 0 19 6 0 10 30 10 74 l0 74 63 10 c34 5 65 10 70 11 4 0 7 -10 7 -23z m599
8 l31 -6 0 -134 0 -134 -25 0 c-22 0 -25 4 -25 40 0 29 -5 42 -19 50 -29 15
-30 14 -33 -32 -3 -37 -6 -43 -23 -40 -34 6 -37 16 -37 116 0 140 20 162 131
140z m-769 -66 c-4 -40 -9 -54 -22 -56 -13 -3 -18 3 -18 22 0 19 -5 26 -19 26
-17 0 -31 -18 -31 -39 0 -4 23 -18 50 -31 46 -22 50 -26 50 -59 0 -52 -23 -78
-82 -96 -28 -8 -56 -15 -60 -15 -5 0 -8 21 -6 48 3 40 6 47 26 50 17 3 22 -2
22 -17 0 -14 6 -21 20 -21 11 0 20 2 20 4 0 2 3 11 6 20 4 10 -9 22 -46 41
l-52 27 6 46 c7 53 27 79 70 91 67 20 72 17 66 -41z m931 30 c41 -12 48 -30
33 -86 -9 -32 -38 -24 -44 13 -6 34 -40 49 -40 18 0 -21 78 -103 98 -103 8 0
12 17 12 48 0 26 4 53 9 61 12 18 91 10 126 -13 24 -16 25 -19 25 -141 0 -68
-3 -126 -7 -128 -5 -3 -17 -1 -28 3 -15 5 -21 19 -25 51 -4 31 -10 45 -22 47
-15 3 -18 -4 -18 -32 0 -37 -10 -43 -44 -30 -11 4 -16 20 -16 53 0 25 -5 53
-10 61 -7 11 -10 4 -10 -26 0 -54 -17 -68 -72 -59 -68 12 -77 19 -75 68 1 23
5 41 10 40 4 -2 14 -3 22 -3 8 0 15 -8 15 -18 0 -21 18 -42 37 -42 27 0 11 38
-32 77 -40 36 -45 45 -45 85 0 68 22 80 101 56z m-1091 -41 c0 -19 -8 -25 -37
-33 -37 -9 -38 -11 -41 -58 -3 -47 -3 -48 21 -42 14 3 32 9 41 12 12 5 16 0
16 -20 0 -21 -7 -27 -40 -36 -29 -8 -40 -16 -40 -30 0 -24 -1 -24 44 -5 36 15
36 15 36 -10 0 -21 -7 -27 -57 -41 -32 -9 -63 -18 -69 -21 -6 -2 -9 9 -6 31 2
18 -1 44 -8 56 -9 16 -9 25 -1 33 6 6 11 41 11 78 l0 67 58 20 c73 26 72 26
72 -1z m853 -354 c3 -5 -18 -7 -46 -5 -86 5 -96 9 -25 11 37 0 69 -2 71 -6z
m88 -21 c-7 -2 -18 1 -23 6 -8 8 -4 9 13 5 13 -4 18 -8 10 -11z m-71 -37 c0
-8 -6 -15 -14 -15 -9 0 -12 -8 -9 -24 6 -29 -10 -40 -43 -32 -17 5 -24 13 -24
31 0 25 26 46 48 38 6 -3 12 0 12 6 0 6 7 11 15 11 8 0 15 -7 15 -15z m244
-40 c11 -8 18 -17 15 -19 -2 -2 -20 10 -39 26 -34 29 -15 24 24 -7z m-360 -42
c11 -29 -33 -59 -49 -33 -3 5 0 7 8 4 9 -3 16 3 20 15 5 22 -7 29 -18 11 -9
-14 -28 -12 -22 3 2 6 10 11 16 10 6 -2 11 1 11 7 0 14 28 1 34 -17z m407 0
c13 -16 12 -17 -3 -4 -10 7 -18 15 -18 17 0 8 8 3 21 -13z m-647 -12 c32 -15
36 -20 20 -24 -12 -3 -7 -5 13 -6 17 0 34 -4 36 -8 3 -5 -43 -8 -102 -9 -75 0
-117 -5 -145 -17 -21 -9 -43 -14 -49 -10 -6 3 -7 1 -3 -5 4 -6 -4 -16 -16 -23
-25 -12 -47 -36 -79 -84 -19 -28 -20 -28 -13 -5 19 68 86 166 106 154 5 -3 7
0 6 7 -4 18 80 48 137 48 28 0 67 -8 89 -18z m98 -88 c10 -9 15 -20 11 -26 -3
-5 -2 -7 4 -4 5 3 25 -7 44 -23 l34 -29 -55 27 c-30 14 -63 25 -72 23 -10 -1
-18 1 -18 6 0 4 -19 7 -42 6 -118 -5 -156 -9 -151 -15 2 -5 -10 -8 -26 -8 -17
0 -31 -4 -31 -9 0 -5 -8 -11 -17 -14 -10 -4 -29 -14 -43 -24 l-25 -17 23 26
c39 43 135 88 205 96 81 9 138 4 159 -15z m332 -29 c3 -8 2 -12 -4 -9 -6 3
-10 10 -10 16 0 14 7 11 14 -7z m25 -83 c1 -35 -5 -22 -12 24 -5 28 -4 34 3
20 5 -11 9 -31 9 -44z m331 -53 c14 -74 12 -203 -5 -302 -59 -339 -225 -587
-506 -757 -75 -45 -88 -50 -126 -45 -41 5 -136 47 -147 64 -3 5 18 17 47 26
241 84 463 310 576 587 63 156 119 389 122 509 l1 35 14 -34 c8 -18 19 -56 24
-83z m-665 42 c3 -6 -1 -7 -9 -4 -18 7 -21 14 -7 14 6 0 13 -4 16 -10z m-31
-50 c54 -26 138 -108 164 -160 l21 -42 -22 -34 c-22 -33 -54 -54 -84 -54 -13
0 -13 3 -3 15 19 23 -1 18 -42 -10 -59 -40 -125 -50 -213 -32 -41 9 -102 28
-136 43 l-61 28 81 37 c93 43 189 130 212 192 15 42 27 45 83 17z m101 0 c10
-11 16 -20 13 -20 -3 0 -13 9 -23 20 -10 11 -16 20 -13 20 3 0 13 -9 23 -20z
m262 -42 c-3 -7 -5 -2 -5 12 0 14 2 19 5 13 2 -7 2 -19 0 -25z m-838 -3 c41
-35 47 -59 22 -93 l-20 -28 21 -33 c21 -32 21 -32 1 -59 -11 -15 -32 -34 -47
-42 -25 -14 -28 -13 -37 3 -7 12 -22 17 -52 17 -24 0 -49 6 -56 13 -11 10 -13
10 -7 0 4 -7 2 -13 -4 -13 -6 0 -8 -5 -4 -11 4 -8 9 -7 15 2 6 10 9 10 9 2 0
-24 -18 -21 -48 9 -38 36 -40 56 -10 88 20 22 23 22 32 5 31 -52 41 -58 82
-51 29 5 43 14 56 37 16 28 16 31 -3 64 -12 21 -29 35 -40 35 -14 0 -19 7 -19
25 0 15 6 25 14 25 7 0 19 7 26 15 18 21 34 19 69 -10z m641 -20 c14 -19 14
-19 -2 -6 -10 7 -18 18 -18 24 0 6 1 8 3 6 1 -2 9 -13 17 -24z m-470 -15 c0
-5 -2 -10 -4 -10 -3 0 -8 5 -11 10 -3 6 -1 10 4 10 6 0 11 -4 11 -10z m-22
-38 c-4 -22 -46 -28 -54 -8 -4 9 -1 23 6 31 16 19 53 1 48 -23z m-213 -22 c14
-27 14 -32 -1 -55 -12 -18 -25 -25 -49 -25 -27 0 -35 5 -45 30 -28 68 61 115
95 50z m855 -21 c-7 -11 -14 -18 -17 -15 -3 3 0 12 7 21 18 21 23 19 10 -6z
m-40 -49 c-6 -11 -13 -20 -16 -20 -2 0 0 9 6 20 6 11 13 20 16 20 2 0 0 -9 -6
-20z m270 17 c0 -2 -10 -12 -22 -23 l-23 -19 19 23 c18 21 26 27 26 19z m34
-29 c-3 -13 -13 -31 -22 -40 -8 -10 -11 -18 -6 -18 5 0 4 -4 -1 -8 -10 -7 -49
-63 -50 -72 -4 -23 -18 -50 -27 -50 -6 0 -6 6 2 15 7 9 10 18 7 21 -3 3 -10
-3 -16 -15 -8 -14 -8 -22 -1 -26 8 -5 7 -11 -1 -21 -6 -7 -15 -12 -19 -9 -5 3
-12 0 -16 -6 -4 -8 -3 -9 4 -5 7 4 12 3 12 -3 0 -21 -21 -21 -29 1 -10 27 -5
41 12 32 7 -4 9 -4 5 0 -4 5 21 42 54 84 33 42 67 91 76 109 18 38 26 43 16
11z m-1256 -100 c20 -12 54 -25 77 -28 l40 -5 1 -55 c1 -30 9 -92 18 -137 47
-228 170 -391 385 -510 42 -23 73 -43 70 -43 -18 -1 -150 45 -194 68 -108 54
-248 194 -324 323 -49 84 -122 304 -145 439 l-6 35 21 -32 c11 -18 37 -42 57
-55z m1172 67 c-7 -8 -17 -15 -23 -15 -6 0 -2 7 9 15 25 19 30 19 14 0z m-24
-75 c-114 -141 -289 -256 -451 -296 -80 -19 -384 -37 -401 -23 -19 15 -37 164
-30 243 11 126 4 122 109 66 119 -63 210 -90 323 -97 100 -6 194 7 284 40 66
24 180 97 198 127 7 12 16 19 19 16 3 -3 -20 -37 -51 -76z m-136 -20 c-8 -5
-19 -10 -25 -10 -5 0 -3 5 5 10 8 5 20 10 25 10 6 0 3 -5 -5 -10z m-113 -26
c-3 -3 -12 -4 -19 -1 -8 3 -5 6 6 6 11 1 17 -2 13 -5z m-79 -11 c-26 -2 -71
-2 -100 0 -29 2 -8 3 47 3 55 0 79 -1 53 -3z m217 -170 c-42 -41 -72 -63 -81
-59 -8 3 -13 2 -10 -3 7 -12 -19 -33 -86 -71 -32 -17 -58 -34 -58 -37 0 -3 17
-2 38 1 l37 7 -35 -24 c-19 -13 -50 -29 -67 -36 -35 -14 -44 -31 -17 -31 8 0
24 5 34 10 16 8 18 7 14 -4 -3 -9 -14 -18 -25 -21 -10 -4 -19 -11 -19 -16 0
-5 -7 -9 -15 -9 -7 0 -18 -6 -22 -14 -4 -7 -24 -22 -43 -33 -45 -24 -91 -54
-108 -70 -7 -7 -25 -13 -40 -13 -41 0 -152 121 -197 213 -41 86 -42 91 -15 77
11 -6 20 -7 20 -3 0 4 46 9 103 10 56 1 120 4 142 7 60 7 209 53 265 81 59 30
74 31 41 5 -13 -11 -19 -20 -14 -20 12 0 42 32 42 45 0 5 5 11 12 14 7 2 9 -1
4 -9 -5 -9 -4 -11 4 -6 6 4 9 11 6 16 -3 5 5 14 17 21 13 7 39 25 59 40 20 16
39 25 43 21 4 -4 7 -2 6 3 -6 27 2 27 15 1 15 -29 15 -29 -50 -93z m-838 45
c-3 -8 -6 -5 -6 6 -1 11 2 17 5 13 3 -3 4 -12 1 -19z"/>
<path d="M1450 2115 c0 -41 2 -45 25 -45 23 0 25 4 25 45 0 41 -2 45 -25 45
-23 0 -25 -4 -25 -45z"/>
<path d="M1802 2033 c2 -37 7 -49 21 -51 16 -3 18 3 15 45 -2 37 -7 49 -21 51
-16 3 -18 -3 -15 -45z"/>
<path d="M820 1520 c-9 -6 -10 -10 -3 -10 6 0 15 5 18 10 8 12 4 12 -15 0z"/>
<path d="M1170 1530 c8 -5 20 -10 25 -10 6 0 3 5 -5 10 -8 5 -19 10 -25 10 -5
0 -3 -5 5 -10z"/>
<path d="M498 1123 c7 -3 16 -2 19 1 4 3 -2 6 -13 5 -11 0 -14 -3 -6 -6z"/>
<path d="M1503 815 c-10 -10 -9 -14 2 -19 17 -6 26 5 17 21 -5 8 -11 7 -19 -2z"/>
<path d="M1265 690 c-3 -5 -1 -10 4 -10 6 0 11 5 11 10 0 6 -2 10 -4 10 -3 0
-8 -4 -11 -10z"/>
<path d="M1156 675 c-6 -16 3 -25 23 -24 12 0 11 3 -4 10 -14 6 -6 7 25 3 52
-7 51 -1 -2 14 -28 8 -38 7 -42 -3z"/>
<path d="M854 629 c-3 -6 -2 -15 3 -20 5 -5 9 -1 9 11 0 23 -2 24 -12 9z"/>
<path d="M985 450 c-3 -6 1 -17 9 -26 9 -8 16 -11 16 -5 0 5 -5 13 -10 16 -6
4 -8 11 -5 16 4 5 4 9 1 9 -3 0 -8 -5 -11 -10z"/>
<path d="M1068 443 c7 -3 16 -2 19 1 4 3 -2 6 -13 5 -11 0 -14 -3 -6 -6z"/>
</g>
</svg>
